<?xml version="1.0" encoding="UTF-8"?><svg id="Calque_1" xmlns="http://www.w3.org/2000/svg" width="261.4388" height="54.1319" viewBox="0 0 261.4388 54.1319"><defs><style>.cls-1,.cls-2,.cls-3,.cls-4,.cls-5,.cls-6{fill:none;}.cls-1,.cls-7,.cls-8,.cls-9{stroke-width:0px;}.cls-2,.cls-3,.cls-10,.cls-4,.cls-5,.cls-6,.cls-11{stroke:#000;stroke-miterlimit:10;}.cls-2,.cls-11{stroke-width:.323px;}.cls-3{stroke-width:.1615px;}.cls-10{stroke-width:.0223px;}.cls-10,.cls-8{fill:#43566b;}.cls-4{stroke-width:.6863px;}.cls-5{stroke-width:.8881px;}.cls-6{stroke-width:.2422px;}.cls-9,.cls-11{fill:#fff;}</style></defs><path class="cls-7" d="m0,52.3546L6.6969,12.9062h10.1497l7.9004,21.0324,7.8481-21.0324h10.1497l6.6969,39.4484h-10.2027l-3.4005-22.7065-9.3127,22.7065h-4.0811l-8.8415-22.7065-3.4005,22.7065H0Z"/><path class="cls-10" d="m34.005,52.621s.1811.7243.9054.7502,1.4486-.3751,1.4486-.3751c0,0,.3363-.0893.5432.0006s.3104.6849.8536.6849,1.4486-.5303,1.4486-.5303c0,0,.2845-.1164.4656,0s.983.7372,2.0435.7114,1.8107-.983,1.8107-.983c0,0,.3363-.2587.595.0259s1.0865.6467,2.147.6467,2.3022-.7027,2.354-1.0649c0,0,.7243-.7717.4139-1.1856s-.8795-.6726-.8795-.6726c0,0,.3363-.2069-.1035-.8536s-1.5779-2.0177-1.5779-2.0177c0,0-.7502-.4139-.8795-1.4486.3104-.983.6208-2.3022.4656-2.6902s.2328-1.7073.2328-1.7073l2.1211-5.8978s.7243-3.0265-.5432-3.8284-2.6644-.983-2.6644-.983l-1.5521.5174s-.4139,0-.1811-.388.4139-.6726.388-.8278-.1293-.5691-.1293-.5691c0,0,.1552-.1552.1552-.2328s.0517-.2069-.1293-.3621-.4139-.4656-.6467-.4139-.5432-.1811-.5432-.2587-.47-.252-.7545-.3814-.1056-.3583-.2545-.8344c-.2247-.7189-.5025-1.7179-.5804-1.9096-.0843-.2073-.4209-.8053-.6796-1.0898s-1.2536-.8171-1.357-.9723.11-.624-.071-1.4776-.5453-2.4403-.8816-2.7507-1.049-.7094-1.6957-.8129-1.2274-.9461-1.4861-.9461-.4139-.1293-.4139-.1293c0,0-.6481.2997-.3118-.1659s.3075-.5905.3075-.5905c0,0,.1654-.2488.1446-.4468-.0257-.2441.0565-.3743.0565-.3743-.0526.0241-.026-.795.2206-1.1623.129-.1921.4488-.6843.4488-.6843,0,0-.6459.1758-.8011.2534s-.7724-.0401-.7724-.0401c0,0,.2912-1.2462.9136-1.3766.5785-.1212.8257-.0687.8257-.0687,0,0-1.2189-1.073-2.3925-.913.0248-.0943.8194-.8789,1.0781-1.7133.2587-.9571-.1648-2.192-.1648-2.192,0,0-.2502.5261-1.1774.5886-1.1058.0745-2.1461-1.9065-3.6894-2.036-.9114-.0765-1.644.4689-1.644.4689,0,0,.404-1.247.7144-2.23s.1928-1.6215.1913-3.2559c-.1035-.8019-.1979-1.3856-.1979-1.3856,0,0-.4497,1.0313-.629,1.3296-.4048.6737-1.7221,1.775-2.5438,2.0853-.7852.2964-2.2966.5439-4.3234,1.6534-1.0256.6303-.9319,2.3331-.9319,2.3331,0,0-.7163-.525-1.0626-1.3069-.323-.7293-.8543-1.5835-.8543-1.5835,0,0,.9862,1.4996.2877,2.3791s-1.6826,1.488-1.7343,2.2641.2963,1.91.2963,1.91c0,0-1.2614-.3858-1.6418-1.2922-.1034-.2463,0-.888,0-.888,0,0-.304.1482-.4896.3567-.2959.3324-.6258.8927-.7293,1.1772,0,0-.4463.8775-.217,1.9586.1684.7939.2042,1.2751.1753,1.4778-.0054.038-.0235.0747-.0558.0953-.0286.0182-.0759.0958-.146.3481-.1293.4656-.2845,1.0088-.1811,1.3451s.1811.4915.0776.8019-.0065.6467-.1843.776-.6952-.1035-.8245-.1552-.3966-.4656-1.7762-.4656-2.7477,1.4601-2.7477,1.4601c0,0-1.147,1.4453-1.2432,2.5517s.5292,2.9825.5292,2.9825c0,0,.8258.3968.6633.964-.4267,1.49-1.866,4.568-1.7216,6.5885s.2405,3.223-.2886,4.3295-2.1647,3.7522-2.1647,4.6662v1.3469s-1.0102.2405-1.0102,1.1064.4329,1.4913.4329,1.4913c0,0-.8178,1.0102-1.2507,1.7799s-1.2988,2.2128-1.1064,2.8382.4329.7697.4329.7697c0,0-.0481.6735.5292,1.2507s.8178.5773,1.0583.9621.3367.8178,1.2988.8659,1.4432-.1924,1.4432-.1924c0,0,.2886.1443.5773.5292s.4811.6254,1.3469.5773,1.2988-.4811,1.2988-.4811c0,0,.0481-.5773.3367-.3848s-.1924.6254.9621.7216,1.5394-.5292,1.5875-.6735.3848-.5773.3848-.5773c1.0583-.0481,2.309-.5773,2.742-2.3571.4329-.4329.1924-1.4432.1924-1.4432l-.4811-1.2026s-.4811-1.1545-.5773-1.3469-.0962-.4811,0-.6254.4811-.0962.7697-.2886.7697-1.2026.3848-1.9723-1.4913-1.8761-2.0204-2.0204-1.2026-.5773-1.4432-.6254-.8178-1.828-.8178-2.5496.3367-2.4053.6735-2.8863.8659-2.5496,1.2507-2.8382.3367,1.0102,1.1064,1.4913,2.2609,1.6837,2.8382,1.6356.7216-.5292.7697.5292-.8178,3.8003-.8659,4.2813-.1924,1.2026-.1924,1.2026c0,0-.0481-.2886-.2886.0481s-.4811.451-.4329,1.2598-.0962,1.5303.1924,2.2038.3367.8178,1.4913,1.1064l1.7318.4329s-1.4432,1.3469-1.8761,1.7799-1.5394.914-.8178,1.828.6735,1.6356,2.0685,1.5875,2.5496-.1443,3.3674-.6254,1.1064-.4811,1.395-1.2507,1.0583-4.0889,1.0583-4.0889c0,0,.7608-.914.6931-1.2988s-1.3184-1.6746-1.3184-1.6746c0,0-.8178-.0572-.4811-.442s.6735-.8178,1.2507-1.0583.8659-.5292,1.2507-.4329.6735.1443,1.0102-.0962,1.4432,0,1.5875.0962.4329-.0481.3848.6735.0962,1.2598.0962,1.2598c0,0-.3848.2315-.3848.5201s-.2405.8178,0,1.7799.8178,1.5394,1.2026,1.395.5292-.4329.5292-.4329c0,0-.4329.1443.4329.4329s.9621.2405,1.2507.0962.7216-.1924.7216-.1924c0,0-.3367.1443.1924.2405s.8178-.1443.8178-.1443l.2405-.0481s.4329.2886.8659,0,1.1545-.4811,1.1545-.4811c0,0,.0962.1443-.0481.4329s.2886.1443-.0481.5292-.5773.2886-.6254.6735.2886-.0962-.1443.7216-.6254.5773-.7697,1.1064-.5911.9227-.0791,3.5882Z"/><path class="cls-9" d="m16.8568,11.2383c-.2286-.4382-.3851-.9099-.4378-1.3749-.0608-.5367.0988-.9699.3968-1.4092.2417-.3564.5202-.6847.7913-1.0186-.3312.3527-.7241.77-.981,1.1306-.4337.6087-.3115,2.2328.2307,2.6721Z"/><path class="cls-9" d="m19.7007,7.0346c-.0288-.1311-.0425-.2623-.0415-.3923-.0196.0829-.0246.1572-.0107.2188.0121.0538.0301.1124.0523.1735Z"/><path class="cls-9" d="m21.4411,4.6415c.6555-.2564,1.3476-.3962,2.0267-.5734.8911-.2325,1.6803-.6653,2.456-1.1545.4224-.2664.8007-.5534,1.1235-.9376.3063-.3646.559-.7717.8432-1.1532.0607-.0815.1894-.127.2785-.078-.0191-.1071-.0394-.2151-.0619-.3248-.3959.6592-1.2327,1.8908-2.0251,2.3842-.7399.4608-4.2138,1.5081-5.0876,2.0346.1464-.0736.2967-.1387.4466-.1974Z"/><path class="cls-9" d="m28.3377,2.166c-.0302.1398-.0701.2786-.1163.4157.0923.8314-.0255,1.6397-.258,2.4238-.0211.0804-.0441.1602-.0682.2395.0129.2372-.1026.5251-.1629.7045-.1089.324-.2256.6712-.3922.9731-.0056.0117-.0109.0236-.0166.0353.303-.4908,1.1641-2.137,1.0141-4.7919Z"/><path class="cls-9" d="m28.4996,18.022c-.2519-.4116-.5535-.7893-.9525-1.109-.0182-.0146-.0321-.0306-.0425-.0474-.0227-.0188-.0442-.0387-.0662-.0581-.0176-.0039-.0355-.0099-.0536-.0192-.4809-.2459-1.3102-.3924-1.7556-.0003-.0839.0738-.1848.0627-.2568.0126-.2002.1694-.3917.348-.5756.5344-.0056.0176-.0144.0353-.0268.0529-.2412.3405-.5196.6606-.8358.9335-.0036.0031-.0073.0062-.0109.0093-.0095.012-.0192.0237-.0287.0357-.0099.0125-.0204.0224-.0312.0313.0037.0245.004.05,0,.0755-.0053.0345-.0196.0663-.0264.1011-.0297.1535-.1823.1752-.2885.113-.1253.0721-.2325.1823-.2554.32-.0365.2191-.0332.4412-.0701.6612.41.1945.7729.4818,1.0515.8398.428-.006.8384.0916,1.1671.4324.0384.0398.0555.084.0573.1272.0761-.0119.152.031.1955.0957.1237.0056.248.0081.3723.009.0219-.0164.0495-.0287.085-.0338.0179-.0026.0358-.0045.0537-.0067,0-.0002,0-.0003,0-.0005l.0024.0002c.1778-.0221.3573-.0289.537-.0328.0067-.0461.0302-.0914.0745-.1281.0155-.0229.037-.044.0655-.0617.0603-.0375.1224-.0696.186-.0985.0652-.035.1328-.0649.2065-.088.2065-.0873.418-.1606.6324-.2263-.0118-.0587.0031-.12.0594-.1651.0689-.0551.1378-.1101.2068-.165.1133-.274.2401-.5421.3783-.8044.0167-.2025.048-.4042.0909-.6041-.0632-.2428-.1243-.4897-.1454-.7356Z"/><path class="cls-9" d="m29.5053,6.479c-.069-.0099-.1412-.0159-.2176-.0166-.0472-.0004-.0983.0027-.1517.0083.0136.0026.0274.0062.0411.0094.0484.009.0967.0192.1447.0319.035.0093.0628.025.0845.0446.009.0039.0181.0084.0272.0124.0157-.0355.0401-.0674.0718-.0901Z"/><path class="cls-9" d="m34.9328,12.4664c-.0041.0207-.0104.0414-.0211.0615-.0339.0642-.1096.1005-.1826.0989-.021.0106-.0424.0173-.0637.0203-.0384.0129-.077.0257-.1134.0418-.1044.0462-.2049.1016-.301.1634.0335.0671.0297.1496-.0428.2166-.2213.2045-.394.4756-.5117.7695.0049.0244.0058.0508.001.0791-.0169.1014-.0345.2025-.0539.3031.0377-.0082.0755-.0153.1135-.0214-.0252-.0135-.0493-.0286-.0715-.0465.3288-.8847,1.0989-1.486,1.3003-1.5139.061-.0084.0426-.0772-.0533-.1722Z"/><path class="cls-9" d="m32.9809,11.838c.0806-.0148.1614-.0232.2422-.023-.062-.0078-.1253-.0148-.1905-.0207.0067-.0072.0133-.0144.0199-.0216-.0235.0222-.0476.0436-.0716.0652Z"/><path class="cls-9" d="m33.6268,11.8971c.0282.0005.0563.002.0842.0046-.0521-.0121-.1059-.0236-.161-.0344.0257.0086.0513.0188.0769.0298Z"/><path class="cls-9" d="m34.3726,12.1179c-.0842-.0369-.1766-.073-.277-.1071.0778.0383.1522.0865.2227.1434.0161-.0146.0345-.027.0542-.0363Z"/><path class="cls-9" d="m14.3219,9.6251c.0298-.0157.0614-.029.0951-.0389.0556-.229.3803-.1551.395.0582.0048.0693.0188.1375.0306.2061.0117.0233.0172.0484.0162.0752v.0469c.0009.0127.0004.0245-.0007.0359.0672.124.1555.2369.2516.3432-.0783-.1121-.132-.2398-.1529-.3879-.1105-.7839-.106-1.0406-.106-1.0406,0,0-.2503.283-.529.702Z"/><path class="cls-9" d="m13.6229,12.088c.0019-.0824.0076-.1653.0167-.2485-.0266-.3769.0182-.7522.1712-1.078.0061-.0129.013-.0243.0204-.0346.0138-.1015.031-.2203.0571-.3431-.201.4258-.3431.8909-.306,1.3163.0119.1364.0257.2655.0406.3879Z"/><path class="cls-9" d="m39.4568,24.0301c-.211-.2195-.5621-.6015-.5574-1.0239.0048-.4224-.0894-1.7621-.283-2.3107-.1937-.5486-.8649-1.622-1.3657-1.8625-.5008-.2405-1.2021-1.0817-1.2021-1.0817l-1.6555-.388s.347.0611.8536-1.1899l-.4656-.3363.3094-1.8187s-.2336.111-.5215.1865c.0533.0078.1065.0165.1597.0266.0053.001.0101.0024.0151.0036.1644-.075.3366.1359.2462.2929-.1704.2958-.2997.6118-.4227.9306-.0246.0921-.051.1837-.0799.2745-.0398.1921-.0893.396-.1585.5926.1477-.0068.2887.1995.1607.3527-.2781.333-.5703.6369-.9798.802-.1559.0628-.2543-.0779-.2404-.2113-.1055-.0583-.1577-.2027-.0498-.3136.0118-.0121.023-.025.0347-.0374v-.1568c-.0043-.0418-.0039-.0863.0072-.1387.0074-.0349.0224-.0623.0416-.0842.0074-.0308.016-.0611.0255-.0912-.1056.0104-.216-.0528-.2149-.1928.0005-.0685.002-.1367.0033-.2045-.0107-.3353-.1019-.6502-.2443-.9515-.0233-.0141-.044-.0321-.0597-.0547-.5452-.7905-1.6138-.8225-2.4725-.5716-.1488.1108-.285.2365-.3984.378-.0344.043-.0743.0638-.1143.0682-.1935.2626-.3728.5366-.5308.8278.0171.1298.0301.2602.0407.3909.084-.0451.172-.0733.2586-.0777.0578-.0342.1189-.0633.1812-.0872.0694-.0341.1434-.0549.2202-.0607.0565-.2963.2401-.5543.5606-.6485.0039-.0012.0077-.0019.0116-.0028.0555-.0335.1135-.0619.1754-.0846.009-.0173.0209-.0337.0365-.0482.2131-.1997.5167-.3305.8017-.2025.0273.0123.0522.0267.076.0422.0669-.0018.1345.0003.2026.0074.0997.0103.1606.0778.183.1548.1907.1348.3062.3596.3442.5907.0311.189.0291.3861.0033.5835.1052.1843.1511.4113.0486.6068-.0262.05-.0591.0927-.0961.1305.0177.0474.0132.1031-.0274.1596-.0076.0106-.0162.0202-.0241.0304-.0041.0208-.0112.042-.0228.0633-.017.0314-.0358.0616-.0556.0911-.0416.4255-.3885.7074-.8352.7161-.0704.0587-.1686.0969-.2769.1138-.1208.0188-.2156-.0452-.2425-.1401-.0526.0142-.1064.0256-.1608.0333-.0387.2602-.1362.5277-.2526.7586.2204.025.2062.3882-.0385.4025-.0189.0011-.0356.0107-.0505.0264-.0193.0582-.0426.111-.0708.1585-.0175.0685-.0287.1441-.0357.2053.013.287.0293.5738.0308.8612.0006.1172-.0917.187-.1882.1963.0815.1321.1539.2701.2206.4068.0035.0072.0072.0145.0108.0218.0621.0465.0867.1108.0851.1735.0476.1025.0901.212.1033.3192.0072.0156.0151.0306.022.0463.0067.0153.0114.0305.0145.0454.0375.0319.062.0815.0599.1502-.0117.3849-.1596.7299-.3105,1.0762-.0409.3272-.1029.6506-.2141.9652-.0066.0214-.0132.0429-.0198.0644.1145.559.1879,1.1258.2632,1.6916.009.0676-.024.1213-.0738.156.0532.1426.0968.2873.1347.4249.0039.0141.0073.0283.011.0424.0363.0886.0708.1775.1025.2669.0353.0324.059.0793.0598.1411.0002.0154.001.0305.0016.0458.0022.0072.0042.0145.0064.0217.0821.2143.1285.4445.1327.6827.0009.0499-.0125.0894-.0343.12-.0042.0556-.0102.1115-.0197.1681-.0322.1905-.3615.1949-.3893,0-.0169-.1182-.0341-.2363-.0522-.3544-.2092-.4613-.5107-.8869-.8182-1.2851-.0225-.0292-.034-.0591-.0367-.0882-.0578-.0238-.1155-.0474-.1722-.0738-.0193-.009-.0354-.0201-.0488-.0328-.0795-.0195-.1461-.0822-.145-.1884.0038-.3431.0539-.6826.0783-1.024-.0671-.302-.1621-.598-.2833-.8802-.1843-.4292-.4614-.9464-.8621-1.2286-.0196.0155-.0425.0264-.0682.0302-.018.0027-.0359.0049-.0537.0068v.0004c-.0008,0-.0015-.0002-.0023-.0002-.0809.0083-.1601.005-.2336-.0352-.0362.0035-.0755-.003-.1159-.0234-.3564-.1798-.8231-.1762-1.2074-.2657-.2698-.0628-.5906-.1605-.7786-.3749-.0553-.0392-.1045-.0834-.1458-.1331-.0231-.0033-.0471-.0107-.0716-.0233-.3243-.1675-.6233-.3864-.8847-.641-.0295-.0287-.0474-.0594-.0563-.0902-.0285.0065-.0586.0079-.0891.0014-.1221-.0257-.2529-.0642-.3857-.0959-.1687.028-.335.0644-.4914.0959-.0009.0002-.0018.0002-.0028.0004-.0938.0761-.1864.154-.2767.2345.0063.0025.0124.0052.0187.0076.1762.0676.3563.1253.5357.1838.2927.0955.6115.1773.8892.3201.0348.017.0692.0358.103.0566.1928.1189.0642.3978-.1204.3777.1568.1687.2758.3821.3538.6336.0785.2533-.2972.3438-.3893.1073-.3157-.8109-1.184-.6798-1.8339-.2999-.0039.0173-.0089.0345-.0161.0512.012-.0277.0025.0098.001.0108-.0004.0075-.0018.0267-.0019.031-.0013.0384,0,.0768.0017.1152.0027.0597.0078.1195.0021.1791-.0139.1446-.1175.2641-.2342.3451-.1116.0774-.2695.1001-.3745-.0038-.0199-.0197-.0356-.0411-.0483-.0636-.0733-.029-.1312-.0963-.1283-.1843.0002-.0051.0008-.0099.0011-.0149-.0132-.0083-.0256-.0178-.0357-.0299-.3367-.4014-1.2338-1.0649-1.6051-.369-.0938.1758-.3829.0962-.3761-.1019.0097-.2869.1281-.4862.3076-.6045-.0318-.0609-.0314-.1387.0012-.2005.0575-.1089.1703-.1729.2932-.1418.011.0028.0216.0066.0318.011.0385-.0388.0932-.0629.1462-.0629h.125c.0623,0,.1151.0286.1513.0721.0147.0058.0294.0111.0443.018.1025.047.1193.1874.0724.2762-.0007.0013-.0016.0022-.0023.0035.016.0274.0246.0589.0257.0914.0537.0163.1073.0358.1605.0577.0622-.0773.1404-.1269.229-.1523.0855-.0496.1799-.0734.2837-.0736-.0031-.0303-.0063-.0607-.0101-.091-.0022-.0172-.002-.0332,0-.0482-.003-.0301-.0048-.06-.0052-.0894-.074-.0602-.1054-.167-.0307-.266-.0184-.0032-.037-.007-.0558-.0122-.237-.065-.4297-.2511-.6113-.4092-.2085.0074-.4152.0274-.6198.082-.1928.0515-.3418-.1951-.1964-.3374.3501-.3427.7496-.5675,1.1895-.6804.0091-.0245.0237-.0481.045-.0697.1458-.1474.2769-.3071.4063-.4688.051-.0638.1454-.0716.2194-.0423.0636-.2074.1063-.4198.1295-.6348-.0205-.3488-.0777-.6958-.1781-1.0369-.1727-.5874-.4586-1.1315-.8032-1.6356-.2264-.1912-.4379-.4011-.6625-.5939-.1216-.0815-.2385-.1698-.3541-.2605-.0793-.0443-.1571-.0915-.2342-.1403-.1804-.0522-.3492-.136-.525-.2027-.0144-.0055-.0292-.0113-.0441-.0171-.0041.0052-.0078.0106-.0126.0157-.1025.1082-.1844.2271-.2601.355-.0012.002-.0026.0035-.0038.0054.0194.0158.0411.0314.0652.0474.1609.1066.2723.223.3397.4052.2669.1803.5248.377.7748.5707.4026.3119.6177.7229.7395,1.2111.1038.4163.1902.934.0326,1.3496.2042.1597-.0833.4431-.2857.2852-.225-.1755-.3691-.4263-.5418-.6509-.021-.0045-.0422-.0126-.0632-.0259-.125-.0793-.2358-.1692-.3326-.2816-.0066-.0077-.0118-.0156-.0171-.0236-.0568-.0477-.1138-.0951-.1704-.1431-.0415-.0352-.0594-.0794-.0605-.1244-.117-.0871-.2364-.171-.3549-.2542-.313-.2199-.5648-.4197-.9633-.429-.1251-.0029-.2503.0005-.3753.0084-.0152.0087-.0317.015-.0498.0177-.2091.0315-.3789.1437-.5045.3135-.0094.0127-.0198.0244-.0309.0352-.0346.0713-.0666.144-.0946.2187-.0322.0862-.095.1294-.1609.1392-.0136.061-.0236.1234-.031.1867-.008.1682-.0074.3371-.0076.506.0123.1761.0371.3524.0663.5219.0244.0236.0425.057.0499.1017.0058.0351.0114.0701.0166.1052.1459-.0045.2179.1807.1509.3075,0,.0096.0008.0237.0036.0446.0048.0357.0139.0715.0222.1065.0226.0952.0523.1889.0852.2811.0314.008.0612.0226.0863.0453.2248.2037.3604.4781.4885.753.0913.0583.1876.1079.2791.1496.2636.1204.5523.2045.8418.254.0234-.0124.0488-.0199.0751-.0219.0973-.1191.209-.2254.342-.312.2017-.1314.3901.1541.2446.317-.077.0862-.1512.172-.2212.2593.0055.0931-.0431.1845-.1467.1958-.0214.0309-.0425.062-.0626.0937-.0679.3647-.0936.7415-.0108,1.1022.0085.0033.017.007.0255.0115.1622.0853.1087.2832-.0174.3506-.0002.0001-.0004.0002-.0005.0004-.0102.0099-.0285.0231-.0333.0278-.0295.0288-.0581.0583-.0863.0884-.0876.0934-.1709.191-.2537.2887-.1917.2263-.378.4572-.5625.6894-.1558.1961-.315.3793-.4354.5991-.1054.1924-.1896.3951-.3034.5831-.0429.0709-.0882.1403-.129.2124-.018.0318-.0319.071-.0538.1002-.0066.0088-.0108.0166-.0135.0235.0182.0454-.015.0378,0,0-.0029-.0071-.0074-.0159-.0131-.0257-.0007.0022-.0013.0045-.0021.0067.0755.1914-.1715.4097-.32.227-.048-.059-.0679-.1198-.07-.1812-.0745-.0508-.1381-.1162-.1884-.1911-.0171-.0162-.0323-.0372-.0441-.0645-.0106-.0246-.0207-.0493-.0303-.0741-.2002-.1614-.3192-.5024-.3825-.7202-.0765-.2634-.1252-.5351-.1558-.8074-.0208-.1851-.0442-.3923.0065-.5749.0021-.0073.005-.0139.0077-.0206-.0054-.1069-.0043-.2142.0059-.3216.0011-.0115.0032-.0225.0058-.0332-.0487-.1929-.0979-.3856-.1495-.5777-.0608.0151-.1255.0012-.1723-.059-.0979-.1261-.1952-.2517-.2834-.3837-.0658-.083-.1327-.1652-.1983-.2481-.2073-.1568-.3572-.3606-.4667-.5966-.0305-.0656-.0263-.1286-.0017-.1802-.0098-.0279-.0189-.0561-.0273-.0848-.0978-.3367-.0912-.6903-.046-1.0408-.1388-.7097-.6256-1.3723-.5672-2.109.0168-.2113.2911-.2501.3781-.1145.0773-.0828.1742-.1487.2792-.2014-.0152-.1411-.025-.2827-.0422-.4236,0,0,0-.0001,0-.0002-.0442-.0095-.0907-.0177-.1376-.0315-.0644-.019-.1246-.0463-.1813-.0796-.0515.0201-.1104.0191-.1649-.0168-.2985-.1962-.4705-.4744-.5794-.7861-.0128-.0104-.0245-.0224-.0347-.0364-.2711-.3703-.3239-.9078-.2079-1.3432.0269-.1009.1348-.1524.2307-.143.0991-.4629.3662-.8259.9552-.6856.0726.0173.1153.0617.1336.1147.2447.0003.4852.0745.7111.1691.0759.0318.1535.0668.2292.1064.0284-.0145.0597-.0222.0917-.0218.0008-.0016.0015-.0032.0023-.0048.0933-.1605.1865-.3192.2912-.4705-.0087-.0039-.0174-.0084-.0261-.0139-.1391-.0876-.2762-.178-.4111-.2714-.0237-.0083-.0472-.0172-.0706-.0261-.0271-.0026-.0545-.0121-.0808-.0306-.0017-.0012-.0033-.0025-.005-.0037-.0417-.0175-.0831-.0358-.1235-.0555-.1989-.0576-.4033-.0977-.6081-.1366.0097.0883-.0308.1824-.1393.2162-.1978.0616-.396.0424-.5597-.0585-.1138.0897-.3328.0389-.3366-.1518-.0005-.0225-.0018-.0448-.0034-.0671-.0118-.0138-.0226-.03-.0315-.0498-.0167-.0373-.0324-.0748-.0475-.1124.0661.2581.1173.3923.1173.3923,0,0-.1884-.2319-.3994.7476-.2111.9795-.2548,2.1885.6168,2.9673,0,0-.2379,1.163-.3902.9795-.1524-.1835-.5591.0806-.4691,1.112s.5894,1.88.8593,1.9973c.2699.1174.9076.4186.718,1.2081s-.3699,1.6851-1.2693,2.5906c-.8994.9055-1.8463,1.4619-1.7138,2.4932s.3375,4.0753,1.6747,5.3845c1.3372,1.3091,2.8186,2.5489,4.0389,2.6886,1.2203.1397,4.2207.1397,4.2207.1397,0,0,1.0943.644,1.3566.3163s1.7436-.0474,3.001-.1403c1.2574-.0929,4.3666-1.6786,5.0539-2.0628.6873-.3842,1.8664-1.5405,2.3501-1.9764.4837-.4359.5597-.4633.4232-.7847-.1365-.3214-.4233-.686-.4233-.686,0,0,.8171.1358,1.8811-.307,1.0641-.4428,2.0755-.7811,3.3113-2.2816,1.2358-1.5004,1.5109-2.5257,1.5109-2.5257l.1916-1.0244s-.8183-.1752-1.0292-.3947Z"/><path class="cls-9" d="m33.2462,8.481c.1539-.0535.299-.1284.4503-.1884.0248-.0383.0529-.0735.0857-.1035.0739-.0675.1617-.0665.2309-.0298-.0205-.0879-.0423-.1773-.0672-.2702-.4989.3221-.6058.5415-.7725.607.0108.0013.0217.0022.0325.0033.0122-.0071.0255-.0134.0402-.0185Z"/><path class="cls-9" d="m31.8021,8.0893c.0518.0695.0473.138.0127.1909.033-.0354.0805-.0581.1411-.0565.1342.0036.2645.0279.3932.0604-.2595-.1306-.5331-.3078-.7867-.4878.0838.0939.164.1915.2397.293Z"/><path class="cls-9" d="m19.8818,7.7263c-.2062-.1868-.4851-.4571-.7591-.7788.0814.1063.1624.2129.2432.3197.1621.1454.3155.2974.4479.4619.023-.0054.0458-.0061.0679-.0028Z"/><path class="cls-9" d="m18.3113,6.5585c-.0808-.19.1609-.4402.317-.2446.0446.0559.0886.1122.1328.1683-.2233-.3184-.415-.6647-.5214-1.0165.0203.6786.1516,1.0137-.0841,1.3494-.0327.0466-.0776.1023-.1313.1648.0496-.013.1027-.0102.1481.0071.0512-.1336.1009-.2678.1493-.4025-.0035-.0086-.0068-.0174-.0104-.026Z"/><path class="cls-9" d="m34.0145,31.2496s1.0573-.1009-.6745,1.2295-5.0157,3.111-5.8337,3.309-3.4123-.4257-3.8661,0-.9669.1148-1.8104.1094-1.8453.4049-2.373.176-1.6895-.2839-1.6895-.2839c0,0-.1568.342.6558,2.6784s-.7172,2.9294,2.0792,2.5392c2.7964-.3903,4.4817-.7027,5.5798-.7619s2.3444,0,2.3444,0c0,0,.2765-.3123,1.1931-.6389s1.6217-.3535,1.6217-.3535c0,0-.4417.2389-.3792-.4487s.1968-1.4619,1.1876-1.3131,1.9166.1872,1.9166.1872c0,0,.4227-2.8926.9227-3.1145,0,0,.2765-1.3535,0-1.4944s-.8744-1.8196-.8744-1.8196Z"/><path class="cls-2" d="m37.1128,50.1492c-.0471.1428-.0541.2868-.0209.4321.6945.2678,1.5487-.263,2.1474.3567.5962.617.163,1.7037.7089,2.4031.555.7111,1.6731.8049,2.4554.3557s1.2496-1.3188,1.424-2.2038c.0604-.3067.0627-.6851-.1955-.8613-.1437-.098-.3292-.1022-.5032-.103-1.0025-.0044-3.1418-.4728-3.656.5436-.4337.8575.3436,2.477-1.1153,2.8289-.537.1296-1.1086-.2223-1.3615-.7134-.5614-1.0902.1187-1.6586-.8216-2.5387-.3325-.3112-1.2578-1.6545-1.6815-1.6585-.8667-.0082-.7423,1.9509-.682,2.4942.0812.732.4193,1.5506,1.1308,1.741.4803.1285,1.0065-.0867,1.3478-.4481s.5222-.847.6246-1.3335c.0489-.2325.0587-.5145-.0493-.7085"/><path class="cls-2" d="m47.6068,53.6272c-.799.3022-1.7435.2608-2.463-.1997s-1.1613-1.361-.9907-2.198c.0251-.1232.063-.2454.1291-.3524.3113-.5043,1.0411-.4618,1.6305-.4003.8492.0886,2.2974-.3003,2.9134.3992.9034,1.0258-.2494,2.3845-1.2193,2.7512Z"/><path class="cls-2" d="m23.1527,15.1518c-.1511-.0337-.2204-.2233-.1846-.374s.1434-.2718.2387-.3939c.463-.5928.7021-1.3562.6601-2.1071"/><path class="cls-2" d="m21.7658,12.2772c-.3345,1.3408-.1947,2.795.3891,4.0476"/><path class="cls-2" d="m19.6564,12.6391c-.0305-.0866-.1189.0656-.0755.1465.3551.6612.7811,1.2843,1.2684,1.8551-.7077-.5699-1.1444-1.4627-1.1599-2.3712"/><path class="cls-11" d="m40.5541,37.5145c-.9919.3604-1.7905,1.2138-2.0844,2.2274.2455-.1614.6324.09.5847.3798.0772.441-.1761.9185-.5845,1.1019s-.9336.0556-1.2119-.295c.7879.7142,1.0868,1.9195.7238,2.9191s-1.3657,1.7322-2.4283,1.7743c.6358,1.1457-1.2218,2.3754-.9387,3.6548.2143.9685,1.447,1.2404,2.4376,1.2913,3.8428.1972,7.7044.0273,11.515-.5067.3324-.4453-.0434-1.0643-.4287-1.4647-.629-.6536-1.3216-1.2459-2.0651-1.7657-.1784-.1247-.3688-.256-.4547-.456-.0902-.2099-.0461-.4504-.0005-.6743.3169-1.5559.6338-3.1118.9506-4.6677.2064-1.0133.4145-2.0326.792-2.9954.4022-1.0258.9943-1.9816,1.2608-3.0507s.1257-2.3453-.7234-3.0475c-1.1416-.944-2.914-.3819-4.0479.5712"/><path class="cls-11" d="m15.3198,43.2575c.2182.8932.4873,1.864,1.2375,2.3956.7077.5015,1.6489.4716,2.5148.4216-.8241.7532-1.6143,1.5436-2.3673,2.3679-.2138.2341-.4386.5097-.4125.8257.0177.2139.149.3993.2789.5701.5368.7058,1.2036,1.41,2.079,1.5511.5804.0936,1.1672-.0768,1.7304-.2454.8296-.2483,1.7291-.5477,2.1949-1.2776.2849-.4465.3613-.9893.4648-1.5088.2974-1.493.873-2.9301,1.6885-4.2155-1.4784,1.5433-3.753,2.0726-5.8895,2.0182,1.8365.1732,3.7298-.3413,5.226-1.4202.2962-.2136.6086-.5352.5166-.8887-.0469-.1802-.1908-.3162-.3283-.4418-.4097-.3744-.8195-.7488-1.2292-1.1232-.9323.8158-1.9587,1.5238-3.0525,2.1054-.538.2861-1.18.5449-1.7379.3001-.3792-.1664-.6287-.5317-.8317-.8925-.3021-.5369-.7396-2.6112-1.402-2.7684-1.1059-.2624-.8104,1.6948-.6806,2.2263Z"/><path class="cls-11" d="m30.517,24.4663c-.3015,1.6996.5881,3.5442,2.1058,4.3665.1314.0712.271.1388.3644.2554.071.0888.1091.1987.146.3062.1144.334.2287.6681.3431,1.0021.0226.0659.0513.1388.115.167s.0262-.191-.0063-.2526c.2056.2342.5678.2282.8761.1821,2.3137-.346,4.3933-1.9739,5.2848-4.1368.3408-.8268,1.4169-1.49.1094-2.2437-.329-.1897-.7729-.2798-.914-.6325-.0594-.1484-.0484-.3141-.0418-.4738.0321-.7788-.0639-1.5627-.283-2.3107-.1064-.3631-.2434-.7213-.4559-1.0343-.4539-.6687-1.2206-1.0756-2.0098-1.2495s-1.6083-.1386-2.4144-.0803"/><path class="cls-11" d="m13.8386,18.3751c-1.2727-1.7698-4.1032-2.0919-5.7956-.7179s-1.9918,4.1264-.7043,5.8854c.2362.3227.5309.655.518,1.0547-.0069.2147-.1046.4146-.2002.607-.2148.432-.4295.8641-.6443,1.2961-.3243.6524-.6531,1.4165-.354,2.0808.2639.586.9206.8689,1.5203,1.0998,1.4592.5619,2.989,1.1338,4.543.9598-.4517-.8452-.7299-1.7827-.8123-2.7375-.0261-.3026-.0314-.6158.0747-.9003.1365-.3662.4391-.6406.7258-.9061.6541-.6057,1.2889-1.2552,1.7035-2.0444s.5874-1.7439.284-2.5821l-.4641.0691"/><path class="cls-7" d="m7.2294,34.1126c.6494.4692,1.5504.333,2.31.0781s1.5266-.6135,2.3229-.5251c-1.1937,1.2153-1.347,3.1094-1.1581,4.8024-.6243-.8958-1.3636-1.8671-2.4412-2.0432-.7922-.1295-1.5878.2148-2.2588.6554s-1.2766.9866-1.9969,1.3409c.7572-.3725,1.5879-2.4158,1.8578-3.1766.3944-1.1117.1004-2.1152.2947-3.2102.2395.7085.4128,1.6039,1.0696,2.0783Z"/><path class="cls-7" d="m36.8376,31.9804c1.1463-.0403,2.228-.5546,3.1747-1.2022.8761-.5993,1.7269-1.4332,1.8003-2.4921.5692.1627,1.1554.3341,1.6159.7061s.7673,1.0006.5857,1.5641c-.0867.2689-.2737.4981-.3507.77-.209.7376.4298,1.4187.6691,2.147.3126.9513-.0958,2.022-.7788,2.7543s-1.6017,1.1922-2.5048,1.6247c-.4974-.5354-.1453-1.4013-.2694-2.1215-.1762-1.0225-1.2978-1.5985-2.3248-1.7458-1.2105-.1737-2.4725.0311-3.5659.5786-.1317-.094-.2634-.1879-.3951-.282.958-.794-.4825-2.1737-.4794-3.032.8493-.1619,1.8361.7655,2.8231.7308Z"/><path class="cls-11" d="m12.3608,29.8242c.3319,2.8444,2.6084,5.3562,5.4065,5.9654-.1293-.1488-.3378.0865-.3891.2769-.4788,1.7766-.95,3.5996-.7923,5.4328.1171,1.3619.8072,2.8936,2.15,3.1492.7423.1413,1.5011-.1544,2.1459-.5483,1.2883-.7869,2.2921-1.9634,3.5199-2.8417s2.8753-1.444,4.2406-.7998"/><path class="cls-11" d="m7.8075,40.3299c1.6352-.1364,3.3453-.1868,4.8456.4776,1.3235.5861,2.4597,1.953,2.1837,3.374-.0603.3102-.1934.6187-.4367.8204-.6183.5125-1.5419.1191-2.2352-.2864,1.5716.6176,2.5258,2.4965,2.0973,4.1298-.1207.46-.3476.9082-.7224,1.2009-.3854.3009-.8837.4084-1.3654.492-3.3954.5892-6.9231.4022-10.2373-.5425-1.4854-.4234-1.8423-1.3873-1.2321-2.7805.4514-1.0307,1.5983-1.7144,1.9579-2.7234.4739-1.3297-.48-2.1475,1.0329-3.1087,1.2051-.7656,2.7215-.9372,4.1116-1.0532Z"/><path class="cls-11" d="m32.9859,37.491c-.1848.1269-.4463.1302-.6342.0079,2.3727.0903,4.699,1.0944,6.3922,2.7589l-.626.9791c-.3648-.3223-.8186-.5428-1.2974-.6303,1.0119.7687,1.2629,2.2789.7912,3.4588-.1251.313-.301.6173-.5714.8186-.4164.3099-.9778.3245-1.4959.2924-1.7076-.1059-3.391-.5859-4.8976-1.3965-.5471-.2943-1.0804-.6398-1.474-1.1204s-.6338-1.1162-.5263-1.7281c.1394-.7936.8504-1.4041,1.6319-1.6s1.6138-.0373,2.3653.2534c-.555-.1764-1.1101-.3528-1.6651-.5292-.0766-.0244-.1559-.0502-.2153-.1044-.0961-.0878-.1191-.2312-.1075-.3609.0431-.4808.4806-.8513.9475-.9737s.9601-.0499,1.4372.0232c2.2394.3433,4.7094.8183,6.0756,2.6257.0198-.1745.0396-.3491.0594-.5236"/><path class="cls-4" d="m2.9199,50.3507c-.3198.6558-.1996,1.5096.313,2.0287s1.3899.6439,2.0106.2605.8989-1.2515.5882-1.9117c-.0071.8754.0494,1.8868.7502,2.4115.55.4118,1.3965.3388,1.8877-.1416s.59-1.3022.2514-1.9c.1061.5178.2194,1.0526.5268,1.4826s.865.7283,1.3692.5695c.7602-.2394.904-1.2716.7084-2.0442.005.7816,1.1033,1.1606,1.7806.7706s.975-1.2048,1.1386-1.9691c-4.1994,1.178-8.7236,1.1742-12.921-.011.0927-.2624.5839-.1594.5634.1182s-.4697.4115-.4974.1345l-.0065-.0649c.0952.7758.7355,1.4529,1.5048,1.5913-.0617-.0713-.1235-.1425-.1852-.2138"/><path class="cls-4" d="m29.7366,45.5784c.3989-.2526.5789-.806.3961-1.2414.1711.6259-.1684,1.4455.3337,1.8566.3357.2748.8817.1314,1.1481-.2111s.305-.8126.2481-1.2427c-.0302.4159-.0473.8764.2145,1.201.2416.2996.7045.393,1.0434.2105s.5157-.6204.3984-.9871c-.1355.3971.1283.8705.527,1.0009s.867-.0675,1.0875-.4244c.0475-.0769.0859-.1657.0739-.2553-.0242-.1808-.2272-.271-.4013-.3256-1.1349-.3562-2.3086-.6212-3.3988-1.1069-.7565-.3371-1.6158-1.0679-2.4911-1.0581-2.0527.023-.6693,3.5267.8204,2.5835Z"/><path class="cls-4" d="m33.7071,31.7056c-.0751.2769-.2.5402-.367.7735-.3556.4969-.8838.8393-1.4115,1.1474-1.4025.8187-2.8961,1.4813-4.4444,1.9716-.0423.4112-.0846.8225-.1269,1.2337-.0186.1812-.0402.3708-.1428.5213-.1473.216-.4217.2983-.6753.362-.6311.1586-1.2883.2949-1.9285.1782s-1.2641-.543-1.4291-1.1725c-.0435-.166-.0533-.3455.0049-.5069.1437-.3982.6467-.5501,1.0652-.4861s.7972.2807,1.2052.3935c.6882.1903,1.457.0653,2.0495-.3331-.1446-.0504-.2892-.1008-.4338-.1512"/><path class="cls-4" d="m19.4568,35.8884c.8814.2862,1.8668.2388,2.7167-.1306-.1145.0466-.2291.0931-.3436.1397"/><path class="cls-4" d="m13.6092,29.6836c.9048,1.0926,1.9314,2.0844,3.0546,2.951.2982.2301.6068.4535.954.5996.6984.294,1.4844.2514,2.2412.2887s1.5744.1932,2.0769.7604c-.0354-.1183-.0708-.2365-.1062-.3548"/><path class="cls-4" d="m25.4975,34.2574c1.3722-.2318,2.752-.5507,3.9711-1.2218,1.3774-.7583,2.5054-1.9614,3.1735-3.3847"/><path class="cls-7" d="m40.7174,44.4089c.5913-.1413,1.2104.0393,1.8077.1529.5332.1014,1.0264.3532,1.4857.6424,1.78,1.121,2.6241,1.0074,4.1279,3.3924-1.744-1.5341-3.5458-2.5359-6.0005-3.1125-.4723-.1109-.9615-.1814-1.4426-.119-.976.1266-1.7914.7726-2.5868,1.3522-.6249.4554-2.4336,1.8652-3.4939,2.5594,1.2687-2.7218,3.7482-4.3053,6.1026-4.8678Z"/><path class="cls-3" d="m34.9861,34.3628c-.5456,1.0273-.8938,2.159-1.0199,3.3154.0797-.1874.1593-.3749.239-.5623"/><path class="cls-5" d="m26.0153,11.7001c.3375.7883.1501,1.7298-.3131,2.4516s-1.1683,1.2543-1.9017,1.6988c-.2832.1716-.5888.3489-.7369.6451s-.0363.7441.2885.8086c.0816-.0903.1067-.2277.0625-.3411"/><path class="cls-5" d="m20.2922,16.0063c.2531.1809.5095.365.7048.6072.5214.6469.5075,1.5696.363,2.3878-.048.2719-.1677.5996-.4421.6296-.1876.0205-.352-.116-.4911-.2436-.4366-.4006-.8732-.8012-1.3098-1.2018-.2262-.2075-.462-.4208-.7539-.5158s-.6573-.0374-.8311.2156c-.119.1733-.1265.3976-.1257.6079.0026.6667.0594,1.3719.4419,1.9179s1.1947.8414,1.7397.4575c.2456-.173.4016-.4521.6499-.6213.3341-.2275.7939-.2282,1.1006-.4915.3072-.2636.371-.7153.3387-1.1188-.1224-1.5272-1.2838-2.7292-2.5534-3.4575.3949.2676.7803.5493,1.1684.8268Z"/><path class="cls-5" d="m24.8555,20.4326c.5536.3046,1.225.3882,1.8365.2288.3707-.0967.7214-.2821.9916-.5537.7313-.735.6807-2.0929-.1034-2.7714s-2.1351-.5336-2.7575.2957c-.2519.3356-.3884.749-.6565,1.0722-.2807.3381-.6999.5019-1.0823.2539.6135.459,1.0945,1.102,1.7715,1.4744Z"/><path class="cls-5" d="m29.6491,16.1413c-.1438-.4539.2635-.8911.669-1.1407.4885-.3007,1.1039-.5086,1.6299-.2797.3095.1347.5437.4058.6979.7061.5592,1.0888-.0108,2.6017-1.1495,3.0507-.2538.1001-.5963.1267-.7491-.0993-.0972.1515-.1943.3031-.2915.4546"/><path class="cls-5" d="m16.0851,14.2755c-.539-.2906-1.1472-.5905-1.7379-.4291-.4351.1189-.7783.4847-.9335.9082s-.138.8963-.02,1.3316c.1532.5656.4945,1.1026,1.0122,1.3771.0556.0295.1256.0553.1784.0211s.0209-.1455-.0372-.1213"/><path class="cls-5" d="m22.9098,23.2641c-.039-.2438.0989-.5054.3221-.611s.5129-.0463.6767.1384c.211.2381.1903.5957.1572.9121"/><path class="cls-5" d="m21.4837,23.512c-.1329-.3273-.413-.6361-.7662-.6419s-.6637.4536-.4324.7205c.0771-.011.137-.0916.1255-.1686"/><path class="cls-5" d="m22.999,21.7114c.1313-.2242.3662-.3847.6228-.4255.3623-.0576.7301.119.9914.3764s.4352.5883.605.9135"/><path class="cls-5" d="m21.4709,22.0144c-.2157-.5357-.9435-.7885-1.4448-.5019s-.6528,1.042-.3007,1.4997"/><path class="cls-6" d="m20.4512,28.0132l-.1089-.2504c-.0624.1628.0534.3502.2091.4287s.3382.0761.5125.0721c.9461-.022,1.8921-.0439,2.8382-.0659.7207-.0167,1.501-.0546,2.0573-.513-.002.1497.0162.2997.054.4446.0191.0732.1154-.0721.0406-.0612"/><path class="cls-6" d="m14.5139,17.7883c-.3183.4782.3036,1.0413.3689,1.612.0317.2772-.074.5491-.1229.8238-.1096.6152.0828,1.2769.5052,1.7373.2486.271.5757.4822.7381.8122.2024.4114.0998.8984.1055,1.3569.0116.918.5125,1.8156,1.2876,2.3075.0097-.3091.1087-.615.2819-.8712-.281,1.0489-.0554,2.2214.5947,3.0912s1.7108,1.4181,2.7963,1.4456l-.1868-.5733c.8423.3041,1.4148,1.2263,1.3136,2.1161.2687-.5697.3055-1.2447.1003-1.8402,1.4274.6041,2.1737,2.4556,1.5644,3.8807,1.0729-.9553,1.7906-2.3008,1.9863-3.724.1914.6459.2391,1.3339.1387,2,.6054-.5792,1.046-1.3288,1.2575-2.1396l.1568,1.6619c.5787-.901.9817-1.9144,1.1797-2.9668.3453.3727.5723.8534.6408,1.3569.1384-1.2055.1838-2.4217.1355-3.6341.5938.4535.9624,1.1885.9706,1.9356.8948-1.2644-.471-3.003-.1645-4.5213.1035-.5125.3975-.9756.4683-1.4937s-.2242-1.1611-.747-1.1655"/><path class="cls-6" d="m27.4442,22.0369c1.2436.8502,1.8333,2.5485,1.3843,3.9864-.0827-.0841-.1654-.1681-.2481-.2522"/><path class="cls-6" d="m13.9431,13.5892c-.7414-1.4419-.3454-3.3751.9033-4.4093-.107.5254.1869,1.0674.6027,1.4059s.937.5141,1.4458.683c-.6938-.731-.7998-1.9503-.2427-2.7901.339-.511.87-.8613,1.2679-1.328s.6508-1.1688.3197-1.685c.3131.8667.8885,1.6367,1.6311,2.1825-.5267-1.0697.2969-2.3717,1.3445-2.9412s2.2801-.6795,3.3948-1.1027c1.518-.5764,2.7965-1.7578,3.4906-3.2256.4913,2.1725.2538,4.5032-.6656,6.532.7601-.5553,1.8422-.6297,2.6711-.1835.6772.3645,1.1548,1.0197,1.8095,1.4233s1.6878.4274,2.0302-.2613c.5989,1.3082.2036,2.9983-.9133,3.9053.7897-.0432,1.5921.2609,2.1549.8164-.7845.0507-1.4717.7562-1.5018,1.5418.4662.1087.9675.0608,1.4047-.1341-.4678.5456-.4232,1.3437-.5402,2.0528s-.6406,1.5129-1.3473,1.3823"/><path class="cls-1" d="m9.4476,51.6759c-.2618-.2611-.3923-.5664-.3923-.9159V16.7533c0-.3835.1306-.6976.3923-.9417.2611-.2441.5664-.3665.9159-.3665h5.6504c.8364,0,1.447.3841,1.8311,1.1512l9.208,16.4802,9.208-16.4802c.3835-.767.9935-1.1512,1.8311-1.1512h5.5981c.3835,0,.7058.1224.9676.3665s.393.5582.393.9417v34.0068c0,.3841-.1312.6983-.393.9424s-.5841.3658-.9676.3658h-6.2257c-.3841,0-.7071-.1217-.9682-.3658-.2618-.2441-.3923-.5582-.3923-.9424v-19.6195l-5.8599,10.935c-.4535.8023-1.0641,1.2029-1.8311,1.2029h-2.7205c-.4535,0-.82-.1041-1.0988-.3135s-.5229-.5059-.7323-.8894l-5.9116-10.935v19.6195c0,.3494-.1224.6547-.3665.9159-.2447.2618-.5582.3923-.9417.3923h-6.2781c-.3494,0-.6547-.1306-.9159-.3923Z"/><path class="cls-7" d="m58.6267,51.5188c-1.5176-.7147-2.7035-1.6911-3.5575-2.9293-.8547-1.2382-1.2817-2.6076-1.2817-4.1076,0-2.4064.9853-4.3422,2.9558-5.8069s4.6822-2.4764,8.1357-3.0346l6.5398-.9941v-.733c0-1.3246-.2794-2.3011-.8377-2.9293-.5582-.6276-1.5-.9417-2.8246-.9417-.8023,0-1.4653.14-1.9882.4188-.5235.2788-1.0641.6623-1.6223,1.1505-.4882.4188-.8547.6976-1.0982.837-.1047.2794-.2971.4188-.5759.4188h-5.7028c-.3488,0-.6364-.1129-.8629-.34-.2271-.2271-.323-.497-.2876-.8112.0347-.9417.497-1.9882,1.3864-3.1393.8894-1.1505,2.2493-2.1446,4.0805-2.9817s4.0893-1.2559,6.7751-1.2559c4.2905,0,7.4645.9506,9.5221,2.8517s3.087,4.4558,3.087,7.6639v15.9049c0,.3494-.1224.6547-.3665.9159-.2441.2618-.5582.3923-.9417.3923h-6.0686c-.3494,0-.6547-.1306-.9159-.3923-.2618-.2611-.3923-.5664-.3923-.9159v-1.8311c-.767,1.0818-1.84,1.9623-3.2176,2.6423s-3.0081,1.02-4.8916,1.02c-1.8488,0-3.5317-.3576-5.0487-1.0723Zm11.4056-6.461c.9941-1.0464,1.4911-2.5811,1.4911-4.6046v-.7323l-4.4476.7847c-3.1393.5582-4.7087,1.657-4.7087,3.2964,0,.8717.3658,1.5605,1.0988,2.0664.7323.5059,1.6217.7588,2.6682.7588,1.6047,0,2.9041-.5229,3.8982-1.5694Z"/><path class="cls-8" d="m92.9735,41.7614v-10.045h-4.0805c-.3841,0-.7071-.1217-.9682-.3658-.2618-.2441-.3923-.5582-.3923-.9424v-4.2375c0-.3835.1306-.6976.3923-.9417.2611-.2441.5841-.3665.9682-.3665h4.0805v-8.6327c0-.3835.1306-.697.3923-.9411s.5671-.3665.9159-.3665h6.0686c.3835,0,.6976.1224.9417.3665s.3665.5576.3665.9411v8.6327h6.5398c.3835,0,.7058.1224.9676.3665s.393.5582.393.9417v4.2375c0,.3841-.1312.6983-.393.9424s-.5841.3658-.9676.3658h-6.5398v9.3127c0,2.5811.9941,3.8717,2.9823,3.8717h4.0287c.3835,0,.697.1224.9411.3665s.3665.5576.3665.9411v4.5516c0,.3494-.1224.6547-.3665.9159-.2441.2618-.5576.3923-.9411.3923h-4.8658c-7.2204,0-10.8303-3.4352-10.8303-10.3068Z"/><path class="cls-7" d="m121.1207,41.7614v-10.045h-4.0805c-.3841,0-.7071-.1217-.9682-.3658-.2618-.2441-.3923-.5582-.3923-.9424v-4.2375c0-.3835.1306-.6976.3923-.9417.2611-.2441.5841-.3665.9682-.3665h4.0805v-8.6327c0-.3835.1306-.697.3923-.9411s.5671-.3665.9159-.3665h6.0686c.3835,0,.6976.1224.9417.3665s.3665.5576.3665.9411v8.6327h6.5398c.3835,0,.7058.1224.9676.3665s.393.5582.393.9417v4.2375c0,.3841-.1312.6983-.393.9424s-.5841.3658-.9676.3658h-6.5398v9.3127c0,2.5811.9941,3.8717,2.9823,3.8717h4.0287c.3835,0,.697.1224.9411.3665s.3665.5576.3665.9411v4.5516c0,.3494-.1224.6547-.3665.9159-.2441.2618-.5576.3923-.9411.3923h-4.8658c-7.2204,0-10.8303-3.4352-10.8303-10.3068Z"/><path class="cls-7" d="m146.5739,51.6759c-.2618-.2611-.3923-.5664-.3923-.9159V16.2297c0-.3835.1306-.697.3923-.9411.2611-.2441.5664-.3665.9152-.3665h6.6969c.3835,0,.6976.1224.9417.3665s.3665.5576.3665.9411v11.6674c2.0923-2.3717,4.8475-3.5575,8.2663-3.5575,2.0229,0,3.8282.4535,5.4152,1.3606s2.8334,2.2493,3.7405,4.0281,1.3606,3.924,1.3606,6.4351v14.5967c0,.3494-.1224.6547-.3665.9159-.2447.2618-.5582.3923-.9417.3923h-6.7493c-.3488,0-.6541-.1306-.9152-.3923-.2618-.2611-.3923-.5664-.3923-.9159v-14.2826c0-1.6394-.393-2.9041-1.1776-3.7935s-1.927-1.3341-3.4263-1.3341-2.6776.4447-3.5317,1.3341c-.8547.8894-1.2817,2.1541-1.2817,3.7935v14.2826c0,.3841-.1224.6983-.3665.9424s-.5582.3658-.9417.3658h-6.6969c-.3488,0-.6541-.1306-.9152-.3923Z"/><path class="cls-7" d="m184.2165,20.5726c-.2441-.2441-.3658-.5582-.3658-.9417v-4.7087c0-.3835.1217-.6976.3658-.9417s.5582-.3665.9417-.3665h6.2787c.3835,0,.697.1224.9411.3665s.3665.5582.3665.9417v4.7087c0,.3835-.1224.6976-.3665.9417s-.5576.3658-.9411.3658h-6.2787c-.3835,0-.6976-.1217-.9417-.3658Zm.0524,31.1298c-.2441-.2441-.3658-.5582-.3658-.9424v-24.5894c0-.3835.1217-.6976.3658-.9417s.5582-.3665.9417-.3665h6.174c.3835,0,.697.1224.9411.3665s.3665.5582.3665.9417v24.5894c0,.3494-.1224.6547-.3665.9159-.2441.2618-.5576.3923-.9411.3923h-6.174c-.3835,0-.6976-.1217-.9417-.3658Z"/><path class="cls-8" d="m205.6934,51.5188c-1.5176-.7147-2.7035-1.6911-3.5575-2.9293-.8547-1.2382-1.2817-2.6076-1.2817-4.1076,0-2.4064.9853-4.3422,2.9558-5.8069s4.6822-2.4764,8.1357-3.0346l6.5398-.9941v-.733c0-1.3246-.2794-2.3011-.8377-2.9293-.5582-.6276-1.5-.9417-2.8246-.9417-.8023,0-1.4653.14-1.9882.4188-.5235.2788-1.0641.6623-1.6223,1.1505-.4882.4188-.8547.6976-1.0982.837-.1047.2794-.2971.4188-.5759.4188h-5.7028c-.3488,0-.6364-.1129-.8629-.34-.2271-.2271-.323-.497-.2876-.8112.0347-.9417.497-1.9882,1.3864-3.1393.8894-1.1505,2.2493-2.1446,4.0805-2.9817s4.0893-1.2559,6.7751-1.2559c4.2905,0,7.4645.9506,9.5221,2.8517s3.087,4.4558,3.087,7.6639v15.9049c0,.3494-.1224.6547-.3665.9159-.2441.2618-.5582.3923-.9417.3923h-6.0686c-.3494,0-.6547-.1306-.9159-.3923-.2618-.2611-.3923-.5664-.3923-.9159v-1.8311c-.767,1.0818-1.84,1.9623-3.2176,2.6423s-3.0081,1.02-4.8916,1.02c-1.8488,0-3.5317-.3576-5.0487-1.0723Zm11.4056-6.461c.9941-1.0464,1.4911-2.5811,1.4911-4.6046v-.7323l-4.4476.7847c-3.1393.5582-4.7087,1.657-4.7087,3.2964,0,.8717.3658,1.5605,1.0988,2.0664.7323.5059,1.6217.7588,2.6682.7588,1.6047,0,2.9041-.5229,3.8982-1.5694Z"/><path class="cls-7" d="m241.2693,51.3883c-1.9011-.8023-3.3046-1.7611-4.2117-2.8776-.907-1.1158-1.3599-2.1099-1.3599-2.9823,0-.3482.1306-.6358.3923-.8629.2611-.2271.5494-.3406.8635-.3406h5.9646c.2088,0,.4005.0877.5753.2618.4182.2794.7323.5059.9417.68.767.5582,1.4388.9682,2.0141,1.23s1.2817.3923,2.1188.3923c1.0118,0,1.84-.2006,2.4852-.6018s.9682-.9676.9682-1.7006c0-.5929-.1659-1.0635-.497-1.4123-.3318-.3488-.9682-.6888-1.91-1.0206-.9417-.3312-2.3717-.6888-4.2899-1.0723-2.8952-.5929-5.1187-1.5605-6.6704-2.9034-1.5523-1.3429-2.3282-3.1482-2.3282-5.4152,0-1.43.4529-2.7905,1.3599-4.0811s2.2582-2.3364,4.0546-3.1387,3.9329-1.2035,6.4093-1.2035,4.6387.3841,6.4875,1.1512c1.8482.767,3.2523,1.6999,4.2117,2.7987.9588,1.0988,1.4388,2.1017,1.4388,3.0081,0,.3141-.1135.5936-.34.8377-.2271.2441-.497.3658-.8112.3658h-5.441c-.2794,0-.5412-.087-.7847-.2618-.4535-.2435-.8547-.5052-1.2035-.7847-.5929-.4529-1.1512-.8017-1.6741-1.0458-.5235-.2441-1.1688-.3665-1.9358-.3665-.907,0-1.6312.2094-2.1717.6276-.5406.4188-.8105.9594-.8105,1.6217,0,.5235.1482.9594.4447,1.3082s.9241.6888,1.8835,1.02c.9588.3318,2.3805.6718,4.264,1.0206,3.3835.5929,5.851,1.6394,7.4034,3.1393,1.5517,1.5,2.3282,3.2611,2.3282,5.284,0,2.5811-1.1512,4.6475-3.4535,6.1992-2.3023,1.5523-5.511,2.3282-9.6262,2.3282-2.8259,0-5.1887-.4012-7.0899-1.2029Z"/></svg>