<?xml version="1.0" encoding="utf-8"?>
<!-- Generator: Adobe Illustrator 28.0.0, SVG Export Plug-In . SVG Version: 6.00 Build 0)  -->
<svg version="1.1" id="Calque_1" xmlns="http://www.w3.org/2000/svg" xmlns:xlink="http://www.w3.org/1999/xlink" x="0px" y="0px"
	 viewBox="0 0 64 64" style="enable-background:new 0 0 64 64;" xml:space="preserve">
<style type="text/css">
	.st0{fill:#43566B;stroke:#000000;stroke-width:2.521936e-02;stroke-miterlimit:10;}
	.st1{fill:#FFFFFF;}
	.st2{fill:none;stroke:#000000;stroke-width:0.3656;stroke-miterlimit:10;}
	.st3{fill:#FFFFFF;stroke:#000000;stroke-width:0.3656;stroke-miterlimit:10;}
	.st4{fill:none;stroke:#000000;stroke-width:0.777;stroke-miterlimit:10;}
	.st5{fill:none;stroke:#000000;stroke-width:0.1828;stroke-miterlimit:10;}
	.st6{fill:none;stroke:#000000;stroke-width:1.0055;stroke-miterlimit:10;}
	.st7{fill:none;stroke:#000000;stroke-width:0.2742;stroke-miterlimit:10;}
</style>
<g>
	<path d="M3,60.6l7.6-44.7h11.5L31,39.7l8.9-23.8h11.5L59,60.6H47.4l-3.8-25.7L33.1,60.6h-4.6l-10-25.7l-3.8,25.7H3z"/>
</g>
<path class="st0" d="M41.5,60.9c0,0,0.2,0.8,1,0.8c0.8,0,1.6-0.4,1.6-0.4s0.4-0.1,0.6,0c0.2,0.1,0.4,0.8,1,0.8
	c0.6,0,1.6-0.6,1.6-0.6s0.3-0.1,0.5,0c0.2,0.1,1.1,0.8,2.3,0.8c1.2,0,2.1-1.1,2.1-1.1s0.4-0.3,0.7,0c0.3,0.3,1.2,0.7,2.4,0.7
	c1.2,0,2.6-0.8,2.7-1.2c0,0,0.8-0.9,0.5-1.3s-1-0.8-1-0.8s0.4-0.2-0.1-1s-1.8-2.3-1.8-2.3s-0.8-0.5-1-1.6c0.4-1.1,0.7-2.6,0.5-3
	c-0.2-0.4,0.3-1.9,0.3-1.9l2.4-6.7c0,0,0.8-3.4-0.6-4.3c-1.4-0.9-3-1.1-3-1.1l-1.8,0.6c0,0-0.5,0-0.2-0.4c0.3-0.4,0.5-0.8,0.4-0.9
	c0-0.2-0.1-0.6-0.1-0.6s0.2-0.2,0.2-0.3c0-0.1,0.1-0.2-0.1-0.4S52.1,34,51.8,34c-0.3,0.1-0.6-0.2-0.6-0.3s-0.5-0.3-0.9-0.4
	s-0.1-0.4-0.3-0.9c-0.3-0.8-0.6-1.9-0.7-2.2c-0.1-0.2-0.5-0.9-0.8-1.2c-0.3-0.3-1.4-0.9-1.5-1.1c-0.1-0.2,0.1-0.7-0.1-1.7
	s-0.6-2.8-1-3.1c-0.4-0.4-1.2-0.8-1.9-0.9s-1.4-1.1-1.7-1.1S42,20.9,42,20.9s-0.7,0.3-0.4-0.2c0.4-0.5,0.3-0.7,0.3-0.7
	s0.2-0.3,0.2-0.5c0-0.3,0.1-0.4,0.1-0.4c-0.1,0,0-0.9,0.2-1.3c0.1-0.2,0.5-0.8,0.5-0.8s-0.7,0.2-0.9,0.3c-0.2,0.1-0.9,0-0.9,0
	s0.3-1.4,1-1.6c0.7-0.1,0.9-0.1,0.9-0.1s-1.4-1.2-2.7-1c0-0.1,0.9-1,1.2-1.9c0.3-1.1-0.2-2.5-0.2-2.5s-0.3,0.6-1.3,0.7
	c-1.3,0.1-2.4-2.2-4.2-2.3c-1-0.1-1.9,0.5-1.9,0.5s0.5-1.4,0.8-2.5s0.2-1.8,0.2-3.7C35,2,34.9,1.3,34.9,1.3s-0.5,1.2-0.7,1.5
	c-0.5,0.8-1.9,2-2.9,2.4c-0.9,0.3-2.6,0.6-4.9,1.9c-1.2,0.7-1.1,2.6-1.1,2.6s-0.8-0.6-1.2-1.5c-0.4-0.8-1-1.8-1-1.8s1.1,1.7,0.3,2.7
	c-0.8,1-1.9,1.7-2,2.6c-0.1,0.9,0.3,2.2,0.3,2.2s-1.4-0.4-1.9-1.5c-0.1-0.3,0-1,0-1s-0.3,0.2-0.6,0.4c-0.3,0.4-0.7,1-0.8,1.3
	c0,0-0.5,1-0.2,2.2c0.2,0.9,0.2,1.4,0.2,1.7c0,0,0,0.1-0.1,0.1c0,0-0.1,0.1-0.2,0.4C18.2,18,18,18.7,18.2,19
	c0.1,0.4,0.2,0.6,0.1,0.9c-0.1,0.4,0,0.7-0.2,0.9c-0.2,0.1-0.8-0.1-0.9-0.2c-0.1-0.1-0.4-0.5-2-0.5S12,21.8,12,21.8
	s-1.3,1.6-1.4,2.9c-0.1,1.3,0.6,3.4,0.6,3.4s0.9,0.4,0.8,1.1c-0.5,1.7-2.1,5.2-1.9,7.5s0.3,3.6-0.3,4.9c-0.6,1.3-2.5,4.2-2.5,5.3
	s0,1.5,0,1.5S6,48.6,6,49.6s0.5,1.7,0.5,1.7s-0.9,1.1-1.4,2c-0.5,0.9-1.5,2.5-1.3,3.2c0.2,0.7,0.5,0.9,0.5,0.9S4.3,58.1,5,58.8
	s0.9,0.7,1.2,1.1c0.3,0.4,0.4,0.9,1.5,1c1.1,0.1,1.6-0.2,1.6-0.2s0.3,0.2,0.7,0.6c0.3,0.4,0.5,0.7,1.5,0.7s1.5-0.5,1.5-0.5
	s0.1-0.7,0.4-0.4s-0.2,0.7,1.1,0.8s1.7-0.6,1.8-0.8c0.1-0.2,0.4-0.7,0.4-0.7c1.2-0.1,2.6-0.7,3.1-2.7c0.5-0.5,0.2-1.6,0.2-1.6
	l-0.5-1.4c0,0-0.5-1.3-0.7-1.5c-0.1-0.2-0.1-0.5,0-0.7c0.1-0.2,0.5-0.1,0.9-0.3c0.3-0.2,0.9-1.4,0.4-2.2c-0.4-0.9-1.7-2.1-2.3-2.3
	s-1.4-0.7-1.6-0.7c-0.3-0.1-0.9-2.1-0.9-2.9s0.4-2.7,0.8-3.3c0.4-0.5,1-2.9,1.4-3.2c0.4-0.3,0.4,1.1,1.3,1.7
	c0.9,0.5,2.6,1.9,3.2,1.9s0.8-0.6,0.9,0.6c0.1,1.2-0.9,4.3-1,4.8c-0.1,0.5-0.2,1.4-0.2,1.4s-0.1-0.3-0.3,0.1
	c-0.3,0.4-0.5,0.5-0.5,1.4c0.1,0.9-0.1,1.7,0.2,2.5c0.3,0.8,0.4,0.9,1.7,1.3s2,0.5,2,0.5s-1.6,1.5-2.1,2s-1.7,1-0.9,2.1
	c0.8,1,0.8,1.9,2.3,1.8s2.9-0.2,3.8-0.7c0.9-0.5,1.3-0.5,1.6-1.4c0.3-0.9,1.2-4.6,1.2-4.6s0.9-1,0.8-1.5s-1.5-1.9-1.5-1.9
	s-0.9-0.1-0.5-0.5c0.4-0.4,0.8-0.9,1.4-1.2s1-0.6,1.4-0.5c0.4,0.1,0.8,0.2,1.1-0.1c0.4-0.3,1.6,0,1.8,0.1s0.5-0.1,0.4,0.8
	s0.1,1.4,0.1,1.4s-0.4,0.3-0.4,0.6s-0.3,0.9,0,2c0.3,1.1,0.9,1.7,1.4,1.6C36.9,53.3,37,53,37,53s-0.5,0.2,0.5,0.5s1.1,0.3,1.4,0.1
	s0.8-0.2,0.8-0.2s-0.4,0.2,0.2,0.3s0.9-0.2,0.9-0.2l0.3-0.1c0,0,0.5,0.3,1,0s1.3-0.5,1.3-0.5s0.1,0.2-0.1,0.5s0.3,0.2-0.1,0.6
	c-0.4,0.4-0.7,0.3-0.7,0.8c-0.1,0.4,0.3-0.1-0.2,0.8c-0.5,0.9-0.7,0.7-0.9,1.3C41.4,57.4,40.9,57.8,41.5,60.9z"/>
<path class="st1" d="M22.1,14c-0.3-0.5-0.4-1-0.5-1.6c-0.1-0.6,0.1-1.1,0.4-1.6c0.3-0.4,0.6-0.8,0.9-1.2c-0.4,0.4-0.8,0.9-1.1,1.3
	C21.4,11.7,21.5,13.5,22.1,14z"/>
<path class="st1" d="M25.3,9.3c0-0.1,0-0.3,0-0.4c0,0.1,0,0.2,0,0.2C25.3,9.1,25.3,9.2,25.3,9.3z"/>
<path class="st1" d="M27.3,6.5c0.7-0.3,1.5-0.4,2.3-0.6c1-0.3,1.9-0.8,2.8-1.3c0.5-0.3,0.9-0.6,1.3-1.1c0.3-0.4,0.6-0.9,1-1.3
	c0.1-0.1,0.2-0.1,0.3-0.1c0-0.1,0-0.2-0.1-0.4c-0.4,0.7-1.4,2.1-2.3,2.7c-0.8,0.5-4.8,1.7-5.8,2.3C27,6.7,27.1,6.6,27.3,6.5z"/>
<path class="st1" d="M35.1,3.7c0,0.2-0.1,0.3-0.1,0.5c0.1,0.9,0,1.9-0.3,2.7c0,0.1,0,0.2-0.1,0.3c0,0.3-0.1,0.6-0.2,0.8
	c-0.1,0.4-0.3,0.8-0.4,1.1c0,0,0,0,0,0C34.3,8.6,35.3,6.7,35.1,3.7z"/>
<path class="st1" d="M35.3,21.7c-0.3-0.5-0.6-0.9-1.1-1.3c0,0,0,0,0-0.1c0,0-0.1,0-0.1-0.1c0,0,0,0-0.1,0c-0.5-0.3-1.5-0.4-2,0
	c-0.1,0.1-0.2,0.1-0.3,0c-0.2,0.2-0.4,0.4-0.7,0.6c0,0,0,0,0,0.1c-0.3,0.4-0.6,0.7-0.9,1.1c0,0,0,0,0,0c0,0,0,0,0,0c0,0,0,0,0,0
	c0,0,0,0.1,0,0.1c0,0,0,0.1,0,0.1c0,0.2-0.2,0.2-0.3,0.1c-0.1,0.1-0.3,0.2-0.3,0.4c0,0.2,0,0.5-0.1,0.7c0.5,0.2,0.9,0.5,1.2,1
	c0.5,0,0.9,0.1,1.3,0.5c0,0,0.1,0.1,0.1,0.1c0.1,0,0.2,0,0.2,0.1c0.1,0,0.3,0,0.4,0c0,0,0.1,0,0.1,0c0,0,0,0,0.1,0c0,0,0,0,0,0l0,0
	c0.2,0,0.4,0,0.6,0c0-0.1,0-0.1,0.1-0.1c0,0,0,0,0.1-0.1c0.1,0,0.1-0.1,0.2-0.1c0.1,0,0.2-0.1,0.2-0.1c0.2-0.1,0.5-0.2,0.7-0.3
	c0-0.1,0-0.1,0.1-0.2c0.1-0.1,0.2-0.1,0.2-0.2c0.1-0.3,0.3-0.6,0.4-0.9c0-0.2,0.1-0.5,0.1-0.7C35.4,22.3,35.3,22,35.3,21.7z"/>
<path class="st1" d="M36.4,8.6c-0.1,0-0.2,0-0.2,0c-0.1,0-0.1,0-0.2,0c0,0,0,0,0,0c0.1,0,0.1,0,0.2,0c0,0,0.1,0,0.1,0.1c0,0,0,0,0,0
	C36.4,8.7,36.4,8.7,36.4,8.6z"/>
<path class="st1" d="M42.6,15.4C42.6,15.4,42.6,15.5,42.6,15.4c-0.1,0.1-0.1,0.2-0.2,0.2c0,0,0,0-0.1,0c0,0-0.1,0-0.1,0
	c-0.1,0.1-0.2,0.1-0.3,0.2c0,0.1,0,0.2,0,0.2c-0.3,0.2-0.4,0.5-0.6,0.9c0,0,0,0.1,0,0.1c0,0.1,0,0.2-0.1,0.3c0,0,0.1,0,0.1,0
	c0,0-0.1,0-0.1-0.1c0.4-1,1.2-1.7,1.5-1.7C42.7,15.6,42.7,15.5,42.6,15.4z"/>
<path class="st1" d="M40.4,14.7c0.1,0,0.2,0,0.3,0C40.6,14.7,40.5,14.7,40.4,14.7C40.4,14.6,40.4,14.6,40.4,14.7
	C40.4,14.6,40.4,14.7,40.4,14.7z"/>
<path class="st1" d="M41.1,14.8C41.1,14.8,41.2,14.8,41.1,14.8C41.1,14.8,41.1,14.7,41.1,14.8C41,14.7,41.1,14.7,41.1,14.8z"/>
<path class="st1" d="M41.9,15c-0.1,0-0.2-0.1-0.3-0.1C41.7,14.9,41.8,15,41.9,15C41.9,15,41.9,15,41.9,15z"/>
<path class="st1" d="M19.2,12.2c0,0,0.1,0,0.1,0c0.1-0.3,0.4-0.2,0.4,0.1c0,0.1,0,0.2,0,0.2c0,0,0,0.1,0,0.1v0.1c0,0,0,0,0,0
	c0.1,0.1,0.2,0.3,0.3,0.4C20,12.9,20,12.7,20,12.6c-0.1-0.9-0.1-1.2-0.1-1.2S19.6,11.7,19.2,12.2z"/>
<path class="st1" d="M18.4,15c0-0.1,0-0.2,0-0.3c0-0.4,0-0.9,0.2-1.2c0,0,0,0,0,0c0-0.1,0-0.2,0.1-0.4c-0.2,0.5-0.4,1-0.3,1.5
	C18.4,14.7,18.4,14.8,18.4,15z"/>
<path class="st1" d="M47.7,28.5c-0.2-0.2-0.6-0.7-0.6-1.2c0-0.5-0.1-2-0.3-2.6c-0.2-0.6-1-1.8-1.5-2.1c-0.6-0.3-1.4-1.2-1.4-1.2
	L42,20.9c0,0,0.4,0.1,1-1.3l-0.5-0.4l0.4-2.1c0,0-0.3,0.1-0.6,0.2c0.1,0,0.1,0,0.2,0c0,0,0,0,0,0c0.2-0.1,0.4,0.2,0.3,0.3
	c-0.2,0.3-0.3,0.7-0.5,1.1c0,0.1-0.1,0.2-0.1,0.3c0,0.2-0.1,0.4-0.2,0.7c0.2,0,0.3,0.2,0.2,0.4c-0.3,0.4-0.6,0.7-1.1,0.9
	c-0.2,0.1-0.3-0.1-0.3-0.2c-0.1-0.1-0.2-0.2-0.1-0.4c0,0,0,0,0,0v-0.2c0,0,0-0.1,0-0.2c0,0,0-0.1,0-0.1c0,0,0-0.1,0-0.1
	c-0.1,0-0.2-0.1-0.2-0.2c0-0.1,0-0.2,0-0.2c0-0.4-0.1-0.7-0.3-1.1c0,0,0,0-0.1-0.1c-0.6-0.9-1.8-0.9-2.8-0.6
	c-0.2,0.1-0.3,0.3-0.5,0.4c0,0-0.1,0.1-0.1,0.1c-0.2,0.3-0.4,0.6-0.6,0.9c0,0.1,0,0.3,0,0.4c0.1-0.1,0.2-0.1,0.3-0.1
	c0.1,0,0.1-0.1,0.2-0.1c0.1,0,0.2-0.1,0.2-0.1c0.1-0.3,0.3-0.6,0.6-0.7c0,0,0,0,0,0c0.1,0,0.1-0.1,0.2-0.1c0,0,0,0,0-0.1
	c0.2-0.2,0.6-0.4,0.9-0.2c0,0,0.1,0,0.1,0c0.1,0,0.2,0,0.2,0c0.1,0,0.2,0.1,0.2,0.2c0.2,0.2,0.3,0.4,0.4,0.7c0,0.2,0,0.4,0,0.7
	c0.1,0.2,0.2,0.5,0.1,0.7c0,0.1-0.1,0.1-0.1,0.1c0,0.1,0,0.1,0,0.2c0,0,0,0,0,0c0,0,0,0,0,0.1c0,0,0,0.1-0.1,0.1
	c0,0.5-0.4,0.8-0.9,0.8c-0.1,0.1-0.2,0.1-0.3,0.1c-0.1,0-0.2-0.1-0.3-0.2c-0.1,0-0.1,0-0.2,0c0,0.3-0.2,0.6-0.3,0.9
	c0.2,0,0.2,0.4,0,0.5c0,0,0,0-0.1,0c0,0.1,0,0.1-0.1,0.2c0,0.1,0,0.2,0,0.2c0,0.3,0,0.6,0,1c0,0.1-0.1,0.2-0.2,0.2
	c0.1,0.1,0.2,0.3,0.2,0.5c0,0,0,0,0,0c0.1,0.1,0.1,0.1,0.1,0.2c0.1,0.1,0.1,0.2,0.1,0.4c0,0,0,0,0,0.1c0,0,0,0,0,0.1
	c0,0,0.1,0.1,0.1,0.2c0,0.4-0.2,0.8-0.4,1.2c0,0.4-0.1,0.7-0.2,1.1c0,0,0,0,0,0.1c0.1,0.6,0.2,1.3,0.3,1.9c0,0.1,0,0.1-0.1,0.2
	c0.1,0.2,0.1,0.3,0.2,0.5c0,0,0,0,0,0c0,0.1,0.1,0.2,0.1,0.3c0,0,0.1,0.1,0.1,0.2c0,0,0,0,0,0.1c0,0,0,0,0,0
	c0.1,0.2,0.1,0.5,0.2,0.8c0,0.1,0,0.1,0,0.1c0,0.1,0,0.1,0,0.2c0,0.2-0.4,0.2-0.4,0c0-0.1,0-0.3-0.1-0.4c-0.2-0.5-0.6-1-0.9-1.5
	c0,0,0-0.1,0-0.1c-0.1,0-0.1-0.1-0.2-0.1c0,0,0,0-0.1,0c-0.1,0-0.2-0.1-0.2-0.2c0-0.4,0.1-0.8,0.1-1.2c-0.1-0.3-0.2-0.7-0.3-1
	c-0.2-0.5-0.5-1.1-1-1.4c0,0,0,0-0.1,0c0,0,0,0-0.1,0l0,0c0,0,0,0,0,0c-0.1,0-0.2,0-0.3,0c0,0-0.1,0-0.1,0c-0.4-0.2-0.9-0.2-1.4-0.3
	c-0.3-0.1-0.7-0.2-0.9-0.4c-0.1,0-0.1-0.1-0.2-0.2c0,0-0.1,0-0.1,0c-0.4-0.2-0.7-0.4-1-0.7c0,0-0.1-0.1-0.1-0.1c0,0-0.1,0-0.1,0
	c-0.1,0-0.3-0.1-0.4-0.1c-0.2,0-0.4,0.1-0.6,0.1c0,0,0,0,0,0c-0.1,0.1-0.2,0.2-0.3,0.3c0,0,0,0,0,0c0.2,0.1,0.4,0.1,0.6,0.2
	c0.3,0.1,0.7,0.2,1,0.4c0,0,0.1,0,0.1,0.1c0.2,0.1,0.1,0.5-0.1,0.4c0.2,0.2,0.3,0.4,0.4,0.7c0.1,0.3-0.3,0.4-0.4,0.1
	c-0.4-0.9-1.3-0.8-2.1-0.3c0,0,0,0,0,0.1c0,0,0,0,0,0c0,0,0,0,0,0c0,0,0,0.1,0,0.1c0,0.1,0,0.1,0,0.2c0,0.2-0.1,0.3-0.3,0.4
	c-0.1,0.1-0.3,0.1-0.4,0c0,0,0,0-0.1-0.1c-0.1,0-0.1-0.1-0.1-0.2c0,0,0,0,0,0c0,0,0,0,0,0c-0.4-0.5-1.4-1.2-1.8-0.4
	c-0.1,0.2-0.4,0.1-0.4-0.1c0-0.3,0.1-0.6,0.3-0.7c0-0.1,0-0.2,0-0.2c0.1-0.1,0.2-0.2,0.3-0.2c0,0,0,0,0,0c0,0,0.1-0.1,0.2-0.1h0.1
	c0.1,0,0.1,0,0.2,0.1c0,0,0,0,0.1,0c0.1,0.1,0.1,0.2,0.1,0.3c0,0,0,0,0,0c0,0,0,0.1,0,0.1c0.1,0,0.1,0,0.2,0.1
	c0.1-0.1,0.2-0.1,0.3-0.2c0.1-0.1,0.2-0.1,0.3-0.1c0,0,0-0.1,0-0.1c0,0,0,0,0-0.1c0,0,0-0.1,0-0.1c-0.1-0.1-0.1-0.2,0-0.3
	c0,0,0,0-0.1,0c-0.3-0.1-0.5-0.3-0.7-0.5c-0.2,0-0.5,0-0.7,0.1c-0.2,0.1-0.4-0.2-0.2-0.4c0.4-0.4,0.8-0.6,1.3-0.8c0,0,0-0.1,0.1-0.1
	c0.2-0.2,0.3-0.3,0.5-0.5c0.1-0.1,0.2-0.1,0.2,0c0.1-0.2,0.1-0.5,0.1-0.7c0-0.4-0.1-0.8-0.2-1.2c-0.2-0.7-0.5-1.3-0.9-1.9
	c-0.3-0.2-0.5-0.5-0.8-0.7c-0.1-0.1-0.3-0.2-0.4-0.3c-0.1-0.1-0.2-0.1-0.3-0.2c-0.2-0.1-0.4-0.2-0.6-0.2c0,0,0,0,0,0c0,0,0,0,0,0
	c-0.1,0.1-0.2,0.3-0.3,0.4c0,0,0,0,0,0c0,0,0,0,0.1,0.1c0.2,0.1,0.3,0.3,0.4,0.5c0.3,0.2,0.6,0.4,0.9,0.6c0.5,0.4,0.7,0.8,0.8,1.4
	c0.1,0.5,0.2,1.1,0,1.5c0.2,0.2-0.1,0.5-0.3,0.3c-0.3-0.2-0.4-0.5-0.6-0.7c0,0,0,0-0.1,0c-0.1-0.1-0.3-0.2-0.4-0.3c0,0,0,0,0,0
	c-0.1-0.1-0.1-0.1-0.2-0.2c0,0-0.1-0.1-0.1-0.1c-0.1-0.1-0.3-0.2-0.4-0.3c-0.4-0.2-0.6-0.5-1.1-0.5c-0.1,0-0.3,0-0.4,0
	c0,0,0,0-0.1,0c-0.2,0-0.4,0.2-0.6,0.4c0,0,0,0,0,0c0,0.1-0.1,0.2-0.1,0.2c0,0.1-0.1,0.1-0.2,0.2c0,0.1,0,0.1,0,0.2
	c0,0.2,0,0.4,0,0.6c0,0.2,0,0.4,0.1,0.6c0,0,0,0.1,0.1,0.1c0,0,0,0.1,0,0.1c0.2,0,0.2,0.2,0.2,0.3c0,0,0,0,0,0.1c0,0,0,0.1,0,0.1
	c0,0.1,0.1,0.2,0.1,0.3c0,0,0.1,0,0.1,0.1c0.3,0.2,0.4,0.5,0.6,0.9c0.1,0.1,0.2,0.1,0.3,0.2c0.3,0.1,0.6,0.2,1,0.3c0,0,0.1,0,0.1,0
	c0.1-0.1,0.2-0.3,0.4-0.4c0.2-0.1,0.4,0.2,0.3,0.4c-0.1,0.1-0.2,0.2-0.3,0.3c0,0.1,0,0.2-0.2,0.2c0,0,0,0.1-0.1,0.1
	c-0.1,0.4-0.1,0.8,0,1.2c0,0,0,0,0,0c0.2,0.1,0.1,0.3,0,0.4c0,0,0,0,0,0c0,0,0,0,0,0c0,0-0.1,0.1-0.1,0.1c-0.1,0.1-0.2,0.2-0.3,0.3
	c-0.2,0.3-0.4,0.5-0.6,0.8c-0.2,0.2-0.4,0.4-0.5,0.7c-0.1,0.2-0.2,0.4-0.3,0.7c0,0.1-0.1,0.2-0.1,0.2c0,0,0,0.1-0.1,0.1c0,0,0,0,0,0
	c0,0.1,0,0,0,0c0,0,0,0,0,0c0,0,0,0,0,0c0.1,0.2-0.2,0.5-0.4,0.3c-0.1-0.1-0.1-0.1-0.1-0.2c-0.1-0.1-0.2-0.1-0.2-0.2c0,0,0,0,0-0.1
	c0,0,0-0.1,0-0.1c-0.2-0.2-0.4-0.6-0.4-0.8c-0.1-0.3-0.1-0.6-0.2-0.9c0-0.2-0.1-0.4,0-0.7c0,0,0,0,0,0c0-0.1,0-0.2,0-0.4
	c0,0,0,0,0,0c-0.1-0.2-0.1-0.4-0.2-0.7c-0.1,0-0.1,0-0.2-0.1c-0.1-0.1-0.2-0.3-0.3-0.4c-0.1-0.1-0.2-0.2-0.2-0.3
	c-0.2-0.2-0.4-0.4-0.5-0.7c0-0.1,0-0.1,0-0.2c0,0,0-0.1,0-0.1c-0.1-0.4-0.1-0.8-0.1-1.2c-0.2-0.8-0.7-1.6-0.6-2.4
	c0-0.2,0.3-0.3,0.4-0.1c0.1-0.1,0.2-0.2,0.3-0.2c0-0.2,0-0.3,0-0.5c0,0,0,0,0,0c-0.1,0-0.1,0-0.2,0c-0.1,0-0.1-0.1-0.2-0.1
	c-0.1,0-0.1,0-0.2,0c-0.3-0.2-0.5-0.5-0.7-0.9c0,0,0,0,0,0c-0.3-0.4-0.4-1-0.2-1.5c0-0.1,0.2-0.2,0.3-0.2c0.1-0.5,0.4-0.9,1.1-0.8
	c0.1,0,0.1,0.1,0.2,0.1c0.3,0,0.5,0.1,0.8,0.2c0.1,0,0.2,0.1,0.3,0.1c0,0,0.1,0,0.1,0c0,0,0,0,0,0c0.1-0.2,0.2-0.4,0.3-0.5
	c0,0,0,0,0,0c-0.2-0.1-0.3-0.2-0.5-0.3c0,0-0.1,0-0.1,0c0,0-0.1,0-0.1,0c0,0,0,0,0,0c0,0-0.1,0-0.1-0.1c-0.2-0.1-0.5-0.1-0.7-0.2
	c0,0.1,0,0.2-0.2,0.2c-0.2,0.1-0.4,0-0.6-0.1c-0.1,0.1-0.4,0-0.4-0.2c0,0,0-0.1,0-0.1c0,0,0,0,0-0.1c0,0,0-0.1-0.1-0.1
	c0.1,0.3,0.1,0.4,0.1,0.4s-0.2-0.3-0.5,0.8c-0.2,1.1-0.3,2.5,0.7,3.4c0,0-0.3,1.3-0.4,1.1c-0.2-0.2-0.6,0.1-0.5,1.3
	c0.1,1.2,0.7,2.1,1,2.3c0.3,0.1,1,0.5,0.8,1.4c-0.2,0.9-0.4,1.9-1.4,2.9c-1,1-2.1,1.7-1.9,2.8c0.2,1.2,0.4,4.6,1.9,6.1
	c1.5,1.5,3.2,2.9,4.6,3c1.4,0.2,4.8,0.2,4.8,0.2s1.2,0.7,1.5,0.4c0.3-0.4,2-0.1,3.4-0.2c1.4-0.1,4.9-1.9,5.7-2.3
	c0.8-0.4,2.1-1.7,2.7-2.2c0.5-0.5,0.6-0.5,0.5-0.9c-0.2-0.4-0.5-0.8-0.5-0.8s0.9,0.2,2.1-0.3c1.2-0.5,2.3-0.9,3.7-2.6
	c1.4-1.7,1.7-2.9,1.7-2.9l0.2-1.2C48.9,28.9,47.9,28.7,47.7,28.5z"/>
<path class="st1" d="M40.7,10.9c0.2-0.1,0.3-0.1,0.5-0.2c0,0,0.1-0.1,0.1-0.1c0.1-0.1,0.2-0.1,0.3,0c0-0.1,0-0.2-0.1-0.3
	C40.9,10.6,40.8,10.8,40.7,10.9C40.6,10.9,40.6,10.9,40.7,10.9C40.6,10.9,40.6,10.9,40.7,10.9z"/>
<path class="st1" d="M39,10.4c0.1,0.1,0.1,0.2,0,0.2c0,0,0.1-0.1,0.2-0.1c0.2,0,0.3,0,0.4,0.1c-0.3-0.1-0.6-0.3-0.9-0.6
	C38.9,10.2,38.9,10.3,39,10.4z"/>
<path class="st1" d="M25.5,10c-0.2-0.2-0.5-0.5-0.9-0.9c0.1,0.1,0.2,0.2,0.3,0.4C25.1,9.7,25.3,9.9,25.5,10C25.5,10,25.5,10,25.5,10
	z"/>
<path class="st1" d="M23.8,8.7c-0.1-0.2,0.2-0.5,0.4-0.3c0.1,0.1,0.1,0.1,0.2,0.2c-0.3-0.4-0.5-0.8-0.6-1.2c0,0.8,0.2,1.1-0.1,1.5
	c0,0.1-0.1,0.1-0.1,0.2c0.1,0,0.1,0,0.2,0C23.7,9,23.7,8.9,23.8,8.7C23.8,8.7,23.8,8.7,23.8,8.7z"/>
<path class="st1" d="M41.5,36.7c0,0,1.2-0.1-0.8,1.4s-5.7,3.5-6.6,3.7s-3.9-0.5-4.4,0s-1.1,0.1-2,0.1c-1,0-2.1,0.5-2.7,0.2
	s-1.9-0.3-1.9-0.3s-0.2,0.4,0.7,3c0.9,2.6-0.8,3.3,2.4,2.9c3.2-0.4,5.1-0.8,6.3-0.9c1.2-0.1,2.7,0,2.7,0s0.3-0.4,1.4-0.7
	c1-0.4,1.8-0.4,1.8-0.4S37.9,46,38,45.2c0.1-0.8,0.2-1.7,1.3-1.5c1.1,0.2,2.2,0.2,2.2,0.2s0.5-3.3,1-3.5c0,0,0.3-1.5,0-1.7
	C42.2,38.6,41.5,36.7,41.5,36.7z"/>
<path class="st2" d="M45,58.1c-0.1,0.2-0.1,0.3,0,0.5c0.8,0.3,1.8-0.3,2.4,0.4c0.7,0.7,0.2,1.9,0.8,2.7c0.6,0.8,1.9,0.9,2.8,0.4
	c0.9-0.5,1.4-1.5,1.6-2.5c0.1-0.3,0.1-0.8-0.2-1c-0.2-0.1-0.4-0.1-0.6-0.1c-1.1,0-3.6-0.5-4.1,0.6c-0.5,1,0.4,2.8-1.3,3.2
	c-0.6,0.1-1.3-0.3-1.5-0.8c-0.6-1.2,0.1-1.9-0.9-2.9c-0.4-0.4-1.4-1.9-1.9-1.9c-1,0-0.8,2.2-0.8,2.8c0.1,0.8,0.5,1.8,1.3,2
	c0.5,0.1,1.1-0.1,1.5-0.5c0.4-0.4,0.6-1,0.7-1.5c0.1-0.3,0.1-0.6-0.1-0.8"/>
<path class="st2" d="M56.9,62c-0.9,0.3-2,0.3-2.8-0.2c-0.8-0.5-1.3-1.5-1.1-2.5c0-0.1,0.1-0.3,0.1-0.4c0.4-0.6,1.2-0.5,1.8-0.5
	c1,0.1,2.6-0.3,3.3,0.5C59.3,60.1,58,61.6,56.9,62z"/>
<path class="st2" d="M29.2,18.4c-0.2,0-0.2-0.3-0.2-0.4c0-0.2,0.2-0.3,0.3-0.4c0.5-0.7,0.8-1.5,0.7-2.4"/>
<path class="st2" d="M27.7,15.2c-0.4,1.5-0.2,3.2,0.4,4.6"/>
<path class="st2" d="M25.3,15.6c0-0.1-0.1,0.1-0.1,0.2c0.4,0.7,0.9,1.5,1.4,2.1c-0.8-0.6-1.3-1.7-1.3-2.7"/>
<path class="st3" d="M48.9,43.8c-1.1,0.4-2,1.4-2.4,2.5c0.3-0.2,0.7,0.1,0.7,0.4c0.1,0.5-0.2,1-0.7,1.2c-0.5,0.2-1.1,0.1-1.4-0.3
	c0.9,0.8,1.2,2.2,0.8,3.3s-1.5,2-2.7,2c0.7,1.3-1.4,2.7-1.1,4.1c0.2,1.1,1.6,1.4,2.8,1.5c4.4,0.2,8.7,0,13-0.6
	c0.4-0.5,0-1.2-0.5-1.7c-0.7-0.7-1.5-1.4-2.3-2c-0.2-0.1-0.4-0.3-0.5-0.5c-0.1-0.2-0.1-0.5,0-0.8c0.4-1.8,0.7-3.5,1.1-5.3
	c0.2-1.1,0.5-2.3,0.9-3.4c0.5-1.2,1.1-2.2,1.4-3.5c0.3-1.2,0.1-2.7-0.8-3.5C56,36.4,54,37,52.7,38.1"/>
<path class="st3" d="M20.4,50.3c0.2,1,0.6,2.1,1.4,2.7c0.8,0.6,1.9,0.5,2.8,0.5c-0.9,0.9-1.8,1.7-2.7,2.7c-0.2,0.3-0.5,0.6-0.5,0.9
	c0,0.2,0.2,0.5,0.3,0.6c0.6,0.8,1.4,1.6,2.4,1.8c0.7,0.1,1.3-0.1,2-0.3c0.9-0.3,2-0.6,2.5-1.4c0.3-0.5,0.4-1.1,0.5-1.7
	c0.3-1.7,1-3.3,1.9-4.8c-1.7,1.7-4.2,2.3-6.7,2.3c2.1,0.2,4.2-0.4,5.9-1.6c0.3-0.2,0.7-0.6,0.6-1c-0.1-0.2-0.2-0.4-0.4-0.5
	c-0.5-0.4-0.9-0.8-1.4-1.3c-1.1,0.9-2.2,1.7-3.5,2.4c-0.6,0.3-1.3,0.6-2,0.3c-0.4-0.2-0.7-0.6-0.9-1c-0.3-0.6-0.8-3-1.6-3.1
	C19.9,47.4,20.2,49.7,20.4,50.3z"/>
<path class="st3" d="M37.6,29c-0.3,1.9,0.7,4,2.4,4.9c0.1,0.1,0.3,0.2,0.4,0.3c0.1,0.1,0.1,0.2,0.2,0.3c0.1,0.4,0.3,0.8,0.4,1.1
	c0,0.1,0.1,0.2,0.1,0.2c0.1,0,0-0.2,0-0.3c0.2,0.3,0.6,0.3,1,0.2c2.6-0.4,5-2.2,6-4.7c0.4-0.9,1.6-1.7,0.1-2.5
	c-0.4-0.2-0.9-0.3-1-0.7c-0.1-0.2-0.1-0.4,0-0.5c0-0.9-0.1-1.8-0.3-2.6c-0.1-0.4-0.3-0.8-0.5-1.2c-0.5-0.8-1.4-1.2-2.3-1.4
	c-0.9-0.2-1.8-0.2-2.7-0.1"/>
<path class="st3" d="M18.7,22.1c-1.4-2-4.6-2.4-6.6-0.8c-1.9,1.6-2.3,4.7-0.8,6.7c0.3,0.4,0.6,0.7,0.6,1.2c0,0.2-0.1,0.5-0.2,0.7
	c-0.2,0.5-0.5,1-0.7,1.5c-0.4,0.7-0.7,1.6-0.4,2.4c0.3,0.7,1,1,1.7,1.2c1.7,0.6,3.4,1.3,5.1,1.1c-0.5-1-0.8-2-0.9-3.1
	c0-0.3,0-0.7,0.1-1c0.2-0.4,0.5-0.7,0.8-1c0.7-0.7,1.5-1.4,1.9-2.3c0.5-0.9,0.7-2,0.3-2.9c-0.2,0-0.4,0.1-0.5,0.1"/>
<path d="M11.2,39.9c0.7,0.5,1.8,0.4,2.6,0.1s1.7-0.7,2.6-0.6c-1.4,1.4-1.5,3.5-1.3,5.4c-0.7-1-1.5-2.1-2.8-2.3
	c-0.9-0.1-1.8,0.2-2.6,0.7c-0.8,0.5-1.4,1.1-2.3,1.5c0.9-0.4,1.8-2.7,2.1-3.6c0.4-1.3,0.1-2.4,0.3-3.6
	C10.3,38.4,10.5,39.4,11.2,39.9z"/>
<path d="M44.7,37.5c1.3,0,2.5-0.6,3.6-1.4c1-0.7,2-1.6,2-2.8c0.6,0.2,1.3,0.4,1.8,0.8c0.5,0.4,0.9,1.1,0.7,1.8
	c-0.1,0.3-0.3,0.6-0.4,0.9c-0.2,0.8,0.5,1.6,0.8,2.4c0.4,1.1-0.1,2.3-0.9,3.1c-0.8,0.8-1.8,1.3-2.8,1.8c-0.6-0.6-0.2-1.6-0.3-2.4
	c-0.2-1.2-1.5-1.8-2.6-2c-1.4-0.2-2.8,0-4,0.7c-0.1-0.1-0.3-0.2-0.4-0.3c1.1-0.9-0.5-2.5-0.5-3.4C42.5,36.5,43.6,37.5,44.7,37.5z"/>
<path class="st3" d="M17,35.1c0.4,3.2,3,6.1,6.1,6.8c-0.1-0.2-0.4,0.1-0.4,0.3c-0.5,2-1.1,4.1-0.9,6.2c0.1,1.5,0.9,3.3,2.4,3.6
	c0.8,0.2,1.7-0.2,2.4-0.6c1.5-0.9,2.6-2.2,4-3.2c1.4-1,3.3-1.6,4.8-0.9"/>
<path class="st3" d="M11.9,47c1.9-0.2,3.8-0.2,5.5,0.5c1.5,0.7,2.8,2.2,2.5,3.8c-0.1,0.4-0.2,0.7-0.5,0.9c-0.7,0.6-1.7,0.1-2.5-0.3
	c1.8,0.7,2.9,2.8,2.4,4.7c-0.1,0.5-0.4,1-0.8,1.4c-0.4,0.3-1,0.5-1.5,0.6C13,59.2,9,59,5.2,57.9c-1.7-0.5-2.1-1.6-1.4-3.1
	c0.5-1.2,1.8-1.9,2.2-3.1c0.5-1.5-0.5-2.4,1.2-3.5C8.6,47.3,10.3,47.1,11.9,47z"/>
<path class="st3" d="M40.4,43.7c-0.2,0.1-0.5,0.1-0.7,0c2.7,0.1,5.3,1.2,7.2,3.1c-0.2,0.4-0.5,0.7-0.7,1.1c-0.4-0.4-0.9-0.6-1.5-0.7
	c1.1,0.9,1.4,2.6,0.9,3.9c-0.1,0.4-0.3,0.7-0.6,0.9c-0.5,0.4-1.1,0.4-1.7,0.3c-1.9-0.1-3.8-0.7-5.5-1.6c-0.6-0.3-1.2-0.7-1.7-1.3
	s-0.7-1.3-0.6-2c0.2-0.9,1-1.6,1.8-1.8c0.9-0.2,1.8,0,2.7,0.3c-0.6-0.2-1.3-0.4-1.9-0.6c-0.1,0-0.2-0.1-0.2-0.1
	c-0.1-0.1-0.1-0.3-0.1-0.4c0-0.5,0.5-1,1.1-1.1s1.1-0.1,1.6,0c2.5,0.4,5.3,0.9,6.9,3c0-0.2,0-0.4,0.1-0.6"/>
<path class="st4" d="M6.3,58.3C6,59,6.1,60,6.7,60.6c0.6,0.6,1.6,0.7,2.3,0.3c0.7-0.4,1-1.4,0.7-2.2c0,1,0.1,2.1,0.8,2.7
	c0.6,0.5,1.6,0.4,2.1-0.2c0.6-0.5,0.7-1.5,0.3-2.2c0.1,0.6,0.2,1.2,0.6,1.7c0.3,0.5,1,0.8,1.6,0.6c0.9-0.3,1-1.4,0.8-2.3
	c0,0.9,1.2,1.3,2,0.9c0.8-0.4,1.1-1.4,1.3-2.2c-4.8,1.3-9.9,1.3-14.6,0c0.1-0.3,0.7-0.2,0.6,0.1c0,0.3-0.5,0.5-0.6,0.2
	c0,0,0,0,0-0.1c0.1,0.9,0.8,1.6,1.7,1.8c-0.1-0.1-0.1-0.2-0.2-0.2"/>
<path class="st4" d="M36.7,52.9c0.5-0.3,0.7-0.9,0.4-1.4c0.2,0.7-0.2,1.6,0.4,2.1c0.4,0.3,1,0.1,1.3-0.2c0.3-0.4,0.3-0.9,0.3-1.4
	c0,0.5-0.1,1,0.2,1.4c0.3,0.3,0.8,0.4,1.2,0.2c0.4-0.2,0.6-0.7,0.5-1.1c-0.2,0.4,0.1,1,0.6,1.1s1-0.1,1.2-0.5
	c0.1-0.1,0.1-0.2,0.1-0.3c0-0.2-0.3-0.3-0.5-0.4c-1.3-0.4-2.6-0.7-3.8-1.3c-0.9-0.4-1.8-1.2-2.8-1.2C33.4,50,35,54,36.7,52.9z"/>
<path class="st4" d="M41.2,37.2c-0.1,0.3-0.2,0.6-0.4,0.9c-0.4,0.6-1,1-1.6,1.3c-1.6,0.9-3.3,1.7-5,2.2c0,0.5-0.1,0.9-0.1,1.4
	c0,0.2,0,0.4-0.2,0.6c-0.2,0.2-0.5,0.3-0.8,0.4c-0.7,0.2-1.5,0.3-2.2,0.2c-0.7-0.1-1.4-0.6-1.6-1.3c0-0.2-0.1-0.4,0-0.6
	c0.2-0.5,0.7-0.6,1.2-0.6c0.5,0.1,0.9,0.3,1.4,0.4c0.8,0.2,1.6,0.1,2.3-0.4c-0.2-0.1-0.3-0.1-0.5-0.2"/>
<path class="st4" d="M25.1,41.9c1,0.3,2.1,0.3,3.1-0.1c-0.1,0.1-0.3,0.1-0.4,0.2"/>
<path class="st4" d="M18.4,34.9c1,1.2,2.2,2.4,3.5,3.3c0.3,0.3,0.7,0.5,1.1,0.7c0.8,0.3,1.7,0.3,2.5,0.3c0.9,0,1.8,0.2,2.4,0.9
	c0-0.1-0.1-0.3-0.1-0.4"/>
<path class="st4" d="M31.9,40.1c1.6-0.3,3.1-0.6,4.5-1.4c1.6-0.9,2.8-2.2,3.6-3.8"/>
<path d="M49.1,51.6c0.7-0.2,1.4,0,2,0.2c0.6,0.1,1.2,0.4,1.7,0.7c2,1.3,3,1.1,4.7,3.8c-2-1.7-4-2.9-6.8-3.5
	c-0.5-0.1-1.1-0.2-1.6-0.1c-1.1,0.1-2,0.9-2.9,1.5c-0.7,0.5-2.8,2.1-4,2.9C43.6,54,46.5,52.2,49.1,51.6z"/>
<path class="st5" d="M42.6,40.2c-0.6,1.2-1,2.4-1.2,3.8c0.1-0.2,0.2-0.4,0.3-0.6"/>
<path class="st6" d="M32.5,14.5c0.4,0.9,0.2,2-0.4,2.8c-0.5,0.8-1.3,1.4-2.2,1.9c-0.3,0.2-0.7,0.4-0.8,0.7s0,0.8,0.3,0.9
	c0.1-0.1,0.1-0.3,0.1-0.4"/>
<path class="st6" d="M26,19.4c0.3,0.2,0.6,0.4,0.8,0.7c0.6,0.7,0.6,1.8,0.4,2.7c-0.1,0.3-0.2,0.7-0.5,0.7c-0.2,0-0.4-0.1-0.6-0.3
	c-0.5-0.5-1-0.9-1.5-1.4c-0.3-0.2-0.5-0.5-0.9-0.6c-0.3-0.1-0.7,0-0.9,0.2c-0.1,0.2-0.1,0.5-0.1,0.7c0,0.8,0.1,1.6,0.5,2.2
	c0.4,0.6,1.4,1,2,0.5c0.3-0.2,0.5-0.5,0.7-0.7c0.4-0.3,0.9-0.3,1.2-0.6c0.3-0.3,0.4-0.8,0.4-1.3c-0.1-1.7-1.5-3.1-2.9-3.9
	C25.1,18.8,25.6,19.1,26,19.4z"/>
<path class="st6" d="M31.2,24.4c0.6,0.3,1.4,0.4,2.1,0.3c0.4-0.1,0.8-0.3,1.1-0.6c0.8-0.8,0.8-2.4-0.1-3.1s-2.4-0.6-3.1,0.3
	c-0.3,0.4-0.4,0.8-0.7,1.2c-0.3,0.4-0.8,0.6-1.2,0.3C29.9,23.3,30.4,24,31.2,24.4z"/>
<path class="st6" d="M36.6,19.6c-0.2-0.5,0.3-1,0.8-1.3c0.6-0.3,1.2-0.6,1.8-0.3c0.4,0.2,0.6,0.5,0.8,0.8c0.6,1.2,0,2.9-1.3,3.5
	c-0.3,0.1-0.7,0.1-0.8-0.1c-0.1,0.2-0.2,0.3-0.3,0.5"/>
<path class="st6" d="M21.2,17.5c-0.6-0.3-1.3-0.7-2-0.5c-0.5,0.1-0.9,0.5-1.1,1c-0.2,0.5-0.2,1,0,1.5c0.2,0.6,0.6,1.2,1.1,1.6
	c0.1,0,0.1,0.1,0.2,0c0.1,0,0-0.2,0-0.1"/>
<path class="st6" d="M29,27.6c0-0.3,0.1-0.6,0.4-0.7c0.3-0.1,0.6-0.1,0.8,0.2c0.2,0.3,0.2,0.7,0.2,1"/>
<path class="st6" d="M27.3,27.9c-0.2-0.4-0.5-0.7-0.9-0.7c-0.4,0-0.8,0.5-0.5,0.8c0.1,0,0.2-0.1,0.1-0.2"/>
<path class="st6" d="M29.1,25.9c0.1-0.3,0.4-0.4,0.7-0.5c0.4-0.1,0.8,0.1,1.1,0.4s0.5,0.7,0.7,1"/>
<path class="st6" d="M27.3,26.2c-0.2-0.6-1.1-0.9-1.6-0.6s-0.7,1.2-0.3,1.7"/>
<path class="st7" d="M26.2,33c0-0.1-0.1-0.2-0.1-0.3c-0.1,0.2,0.1,0.4,0.2,0.5s0.4,0.1,0.6,0.1c1.1,0,2.1,0,3.2-0.1
	c0.8,0,1.7-0.1,2.3-0.6c0,0.2,0,0.3,0.1,0.5c0,0.1,0.1-0.1,0-0.1"/>
<path class="st7" d="M19.5,21.4c-0.4,0.5,0.3,1.2,0.4,1.8c0,0.3-0.1,0.6-0.1,0.9c-0.1,0.7,0.1,1.4,0.6,2c0.3,0.3,0.7,0.5,0.8,0.9
	c0.2,0.5,0.1,1,0.1,1.5c0,1,0.6,2.1,1.5,2.6c0-0.4,0.1-0.7,0.3-1c-0.3,1.2-0.1,2.5,0.7,3.5c0.7,1,1.9,1.6,3.2,1.6
	c-0.1-0.2-0.1-0.4-0.2-0.6c1,0.3,1.6,1.4,1.5,2.4c0.3-0.6,0.3-1.4,0.1-2.1c1.6,0.7,2.5,2.8,1.8,4.4c1.2-1.1,2-2.6,2.2-4.2
	c0.2,0.7,0.3,1.5,0.2,2.3c0.7-0.7,1.2-1.5,1.4-2.4c0.1,0.6,0.1,1.3,0.2,1.9c0.7-1,1.1-2.2,1.3-3.4c0.4,0.4,0.6,1,0.7,1.5
	c0.2-1.4,0.2-2.7,0.2-4.1c0.7,0.5,1.1,1.3,1.1,2.2c1-1.4-0.5-3.4-0.2-5.1c0.1-0.6,0.5-1.1,0.5-1.7s-0.3-1.3-0.8-1.3"/>
<path class="st7" d="M34.1,26.2c1.4,1,2.1,2.9,1.6,4.5c-0.1-0.1-0.2-0.2-0.3-0.3"/>
<path class="st7" d="M18.8,16.7c-0.8-1.6-0.4-3.8,1-5c-0.1,0.6,0.2,1.2,0.7,1.6s1.1,0.6,1.6,0.8c-0.8-0.8-0.9-2.2-0.3-3.2
	c0.4-0.6,1-1,1.4-1.5c0.5-0.5,0.7-1.3,0.4-1.9c0.4,1,1,1.9,1.8,2.5c-0.6-1.2,0.3-2.7,1.5-3.3c1.2-0.6,2.6-0.8,3.8-1.2
	c1.7-0.7,3.2-2,4-3.7c0.6,2.5,0.3,5.1-0.8,7.4c0.9-0.6,2.1-0.7,3-0.2c0.8,0.4,1.3,1.2,2,1.6s1.9,0.5,2.3-0.3c0.7,1.5,0.2,3.4-1,4.4
	c0.9,0,1.8,0.3,2.4,0.9c-0.9,0.1-1.7,0.9-1.7,1.7c0.5,0.1,1.1,0.1,1.6-0.2c-0.5,0.6-0.5,1.5-0.6,2.3c-0.1,0.8-0.7,1.7-1.5,1.6"/>
</svg>
