<?xml version="1.0" standalone="no"?>
<!DOCTYPE svg PUBLIC "-//W3C//DTD SVG 20010904//EN"
 "http://www.w3.org/TR/2001/REC-SVG-20010904/DTD/svg10.dtd">
<svg version="1.0" xmlns="http://www.w3.org/2000/svg"
 width="976.000000pt" height="976.000000pt" viewBox="0 0 976.000000 976.000000"
 preserveAspectRatio="xMidYMid meet">
<metadata>
Created by potrace 1.14, written by Peter Selinger 2001-2017
</metadata>
<g transform="translate(0.000000,976.000000) scale(0.100000,-0.100000)"
fill="#000000" stroke="none">
<path d="M5473 9713 c-10 -21 -18 -40 -18 -43 0 -3 -16 -30 -35 -60 -19 -30
-37 -59 -39 -65 -2 -5 -9 -15 -15 -21 -6 -6 -26 -30 -45 -54 -51 -62 -123
-131 -206 -198 -39 -31 -164 -96 -235 -122 -47 -17 -92 -33 -100 -37 -8 -3
-17 -7 -20 -7 -3 -1 -11 -5 -17 -9 -7 -5 -13 -6 -13 -2 0 3 -8 1 -18 -4 -16
-9 -138 -44 -262 -75 -45 -12 -169 -61 -211 -85 -165 -91 -287 -274 -284 -424
l2 -58 -34 33 c-68 66 -170 218 -156 232 4 3 1 6 -5 6 -7 0 -12 7 -12 15 0 17
-101 185 -111 185 -6 0 36 -118 62 -175 11 -24 14 -90 6 -126 -12 -60 -56
-119 -168 -231 -65 -65 -130 -138 -143 -161 -65 -110 -72 -278 -18 -401 25
-55 27 -65 10 -48 -7 7 -20 12 -29 12 -10 0 -19 3 -21 8 -1 4 -24 18 -50 31
-59 29 -124 94 -148 148 -14 31 -18 59 -15 108 4 79 -7 82 -72 17 -87 -87
-162 -227 -188 -352 -18 -83 -21 -227 -6 -277 5 -18 9 -34 8 -35 -1 0 -279 -2
-617 -4 -689 -3 -631 -1 -628 -11 1 -5 -2 -33 -7 -63 -4 -30 -9 -64 -11 -75
-2 -11 -5 -31 -8 -45 -3 -14 -7 -37 -8 -52 -1 -16 -5 -28 -8 -28 -3 0 -5 -12
-4 -27 0 -16 -3 -41 -8 -58 -4 -16 -11 -50 -14 -75 -3 -25 -8 -54 -10 -65 -3
-11 -7 -37 -10 -58 -7 -43 -12 -70 -14 -77 -1 -3 -2 -8 -1 -12 0 -4 -3 -29 -9
-55 -5 -27 -12 -64 -15 -83 -2 -19 -7 -48 -10 -65 -3 -16 -10 -55 -15 -85 -6
-30 -12 -66 -15 -80 -3 -13 -7 -42 -10 -65 -6 -42 -12 -77 -19 -110 -6 -30
-19 -107 -22 -130 -1 -11 -5 -36 -9 -55 -4 -19 -8 -44 -10 -55 -2 -11 -6 -36
-9 -55 -4 -19 -8 -48 -11 -65 -8 -54 -16 -99 -25 -150 -5 -27 -12 -66 -15 -85
-3 -19 -10 -60 -15 -90 -5 -30 -12 -68 -14 -85 -3 -16 -8 -46 -12 -65 -3 -19
-7 -42 -9 -50 -1 -8 -5 -33 -9 -55 -3 -22 -9 -53 -11 -70 -2 -16 -6 -39 -8
-50 -3 -11 -8 -40 -12 -65 -11 -75 -15 -94 -20 -120 -4 -14 -8 -41 -10 -60 -2
-19 -4 -35 -5 -35 -2 0 -9 -36 -14 -75 -3 -19 -7 -46 -10 -60 -3 -14 -7 -41
-10 -60 -8 -52 -16 -93 -21 -116 -3 -12 -7 -39 -10 -60 -4 -21 -8 -50 -11 -64
-3 -14 -7 -41 -10 -60 -2 -19 -8 -57 -14 -85 -5 -27 -12 -66 -15 -85 -3 -19
-8 -51 -12 -70 -3 -19 -7 -46 -8 -60 -1 -14 -4 -25 -5 -25 -1 0 -4 -13 -5 -30
-2 -16 -4 -31 -5 -32 -4 -4 -5 -13 -15 -78 -5 -33 -9 -62 -10 -65 -1 -3 -5
-27 -10 -55 -4 -27 -12 -60 -16 -72 -5 -15 -5 -23 2 -23 6 0 7 -6 2 -13 -4 -6
-8 -16 -9 -22 -11 -64 -15 -87 -23 -132 -6 -29 -13 -71 -16 -95 -7 -50 -13
-83 -15 -83 -1 0 -3 -12 -5 -26 -2 -15 -6 -44 -10 -65 -4 -22 -8 -50 -9 -64
-2 -14 -6 -34 -9 -45 -4 -11 -9 -38 -12 -60 -3 -22 -7 -49 -9 -60 -2 -11 -7
-40 -11 -65 -4 -25 -9 -54 -11 -65 -3 -11 -7 -40 -10 -65 -3 -24 -9 -52 -14
-61 -5 -9 -7 -19 -5 -21 3 -3 -1 -40 -10 -84 -8 -43 -17 -95 -19 -114 -3 -19
-8 -48 -11 -65 -3 -16 -8 -46 -11 -65 -10 -57 -15 -83 -20 -110 -3 -14 -7 -38
-9 -55 -12 -75 -15 -92 -20 -120 -4 -16 -8 -46 -10 -65 -2 -19 -4 -35 -5 -35
-1 0 -3 -11 -6 -25 -2 -14 -9 -54 -15 -90 -6 -36 -13 -74 -15 -85 -2 -11 -6
-31 -9 -45 -2 -14 -7 -43 -10 -65 -3 -23 -8 -52 -11 -65 -3 -14 -7 -41 -9 -60
-2 -19 -4 -35 -5 -35 -1 0 -3 -11 -6 -25 -2 -14 -9 -54 -15 -90 -6 -36 -13
-73 -15 -82 -1 -10 -17 -38 -33 -62 -17 -25 -31 -49 -31 -54 0 -5 -7 -15 -15
-22 -8 -6 -14 -15 -13 -18 1 -4 -7 -34 -17 -67 -24 -78 -25 -81 -27 -140 -2
-52 20 -145 34 -145 11 0 10 -66 -2 -116 -5 -23 -11 -56 -14 -75 -2 -19 -7
-45 -10 -59 -7 -32 -17 -95 -30 -185 -4 -22 -11 -64 -16 -94 -6 -30 -10 -55
-10 -56 0 0 27 2 59 5 33 3 68 3 78 -1 10 -4 22 -4 28 -1 12 8 102 5 115 -3 6
-3 10 -2 10 2 0 5 17 7 38 5 40 -3 133 -4 148 -1 19 3 34 -1 34 -12 0 -18 137
-125 148 -114 2 2 18 -3 34 -11 17 -9 39 -14 49 -11 11 3 19 2 19 -3 0 -4 15
-6 33 -4 116 12 143 21 215 73 18 13 34 22 35 20 39 -61 69 -97 102 -124 67
-55 188 -79 275 -55 19 5 40 10 45 11 31 2 110 66 140 112 l18 28 36 -35 c45
-44 138 -87 188 -87 116 -1 192 49 266 176 30 52 24 50 127 30 8 -1 20 2 27 7
7 5 14 5 17 -1 13 -21 142 42 191 94 28 30 86 114 89 128 2 7 19 47 40 91 34
70 41 89 50 132 1 7 7 18 13 26 23 27 36 74 39 138 3 61 -10 143 -26 165 -4 6
-17 37 -29 70 -13 33 -28 74 -35 90 -19 43 -33 79 -34 85 -1 3 -19 44 -41 92
-58 124 -58 135 -12 148 71 19 116 62 162 154 31 63 42 98 43 135 0 27 4 47 7
43 6 -7 26 -79 34 -121 2 -12 9 -29 15 -35 5 -7 7 -16 3 -19 -3 -4 -1 -7 5 -7
7 0 12 -6 12 -13 0 -21 78 -138 116 -174 33 -32 144 -101 144 -89 0 3 16 -2
36 -10 20 -9 82 -18 138 -21 56 -3 102 -7 104 -8 2 -2 -61 -68 -140 -147 -279
-280 -311 -321 -302 -393 4 -35 74 -155 96 -163 4 -2 8 -8 8 -13 0 -37 136
-189 154 -172 3 4 6 2 6 -3 0 -5 10 -10 23 -12 12 -1 54 -12 93 -25 56 -20 87
-24 155 -22 46 2 93 5 104 8 161 41 303 88 350 116 35 21 55 13 55 -21 0 -10
5 -18 12 -18 6 0 9 -2 6 -6 -3 -3 7 -35 22 -72 16 -36 26 -70 24 -74 -3 -4 0
-8 5 -8 6 0 11 -8 11 -17 1 -21 27 -59 36 -51 3 4 19 2 35 -2 16 -5 29 -5 29
-2 0 7 37 6 93 -1 15 -3 30 -1 32 3 3 4 21 4 40 0 19 -4 35 -5 35 -1 0 7 106
5 126 -3 8 -3 14 -2 14 2 0 8 118 8 126 0 3 -3 20 -2 38 2 19 4 40 4 47 -1 7
-4 17 -5 23 -2 5 3 25 6 45 5 35 -1 37 1 60 56 12 31 27 66 32 77 4 11 19 46
33 78 14 31 22 57 18 57 -3 0 -1 5 6 12 7 7 12 20 12 29 0 9 7 22 15 29 8 7
15 19 15 27 0 8 6 29 14 46 7 18 30 73 50 122 40 97 42 101 80 188 14 31 23
57 20 57 -3 0 2 12 10 28 8 15 42 92 75 172 l59 145 47 1 c26 1 50 6 54 11 16
24 41 22 56 -5 64 -117 199 -141 312 -56 33 25 53 31 53 14 0 -29 169 -62 197
-38 7 6 13 7 13 4 0 -4 17 5 37 18 31 21 40 23 52 13 24 -20 71 -38 82 -32 5
4 9 2 9 -3 0 -10 84 1 123 16 15 7 37 21 49 32 12 11 25 20 28 20 4 0 13 11
20 25 19 35 29 22 25 -33 -4 -65 -12 -82 -53 -119 -28 -25 -36 -39 -37 -70 -1
-21 -12 -58 -25 -83 -30 -56 -53 -103 -54 -112 -1 -3 -17 -24 -36 -45 -19 -22
-41 -48 -48 -59 -7 -10 -21 -32 -32 -49 -36 -53 -53 -132 -55 -255 -2 -126 16
-260 40 -302 9 -15 15 -30 15 -33 0 -3 8 -26 19 -50 57 -128 209 -162 369 -81
93 47 113 47 134 -2 23 -54 88 -118 144 -143 62 -26 142 -23 205 10 43 23 98
76 99 96 0 6 7 21 16 33 19 28 30 22 81 -43 104 -132 318 -162 483 -68 25 15
80 61 123 104 42 43 77 76 77 73 0 -3 8 0 19 5 10 6 22 7 26 3 3 -4 10 -7 13
-7 11 -1 156 -97 167 -111 19 -22 158 -81 209 -89 122 -17 241 1 345 53 61 31
164 127 201 189 14 23 34 43 45 45 21 3 21 3 10 88 -6 48 -8 59 -18 105 -4 17
-9 48 -12 70 -3 23 -8 52 -10 65 -3 14 -8 41 -10 60 -3 19 -8 46 -11 60 -3 13
-7 40 -10 59 -6 45 -14 92 -19 111 -2 8 -6 33 -10 55 -9 62 -15 99 -20 115 -6
21 -19 110 -19 138 -1 12 -3 22 -6 22 -3 0 -7 15 -8 33 -1 18 -5 44 -8 57 -3
14 -7 39 -10 55 -15 90 -35 204 -40 230 -3 17 -7 44 -9 60 -1 17 -4 30 -5 30
-1 0 -3 16 -6 35 -2 19 -6 46 -10 60 -3 14 -8 39 -10 55 -2 17 -15 92 -28 169
-14 76 -25 141 -24 145 0 3 -1 8 -2 11 -2 7 -6 27 -21 113 -13 76 -14 85 -24
157 -3 25 -8 51 -11 59 -3 8 -7 30 -10 50 -2 20 -7 46 -10 59 -2 12 3 36 11
52 8 16 15 33 15 37 0 11 19 74 30 98 5 11 30 79 56 150 25 72 70 194 100 272
30 78 54 148 54 155 0 8 3 18 7 22 4 4 8 17 9 29 2 12 5 42 9 67 27 187 -19
356 -129 466 -90 89 -198 127 -338 119 -68 -4 -77 -3 -76 13 0 9 -2 31 -6 47
-6 31 -26 145 -31 180 -2 11 -8 49 -15 85 -7 36 -13 76 -15 90 -2 14 -15 90
-29 170 -31 180 -37 218 -41 250 -2 14 -7 41 -11 60 -3 19 -8 44 -10 55 -9 50
-12 73 -19 110 -6 38 -8 50 -19 105 -3 14 -7 43 -10 65 -3 22 -7 49 -9 60 -5
20 -25 142 -32 187 -2 13 -6 34 -9 48 -3 14 -8 41 -10 60 -3 19 -7 46 -10 60
-3 14 -7 41 -10 60 -3 19 -8 46 -11 60 -5 25 -9 52 -19 120 -3 19 -8 46 -11
60 -6 34 -16 90 -19 115 -2 11 -6 34 -9 50 -4 17 -9 46 -11 65 -3 19 -12 76
-21 125 -21 120 -23 133 -30 180 -3 22 -13 76 -21 120 -8 44 -17 96 -20 115
-3 19 -7 46 -10 60 -2 14 -7 41 -10 60 -2 19 -9 58 -14 85 -10 52 -21 115 -26
150 -1 11 -3 20 -4 20 -1 0 -3 11 -4 25 -2 14 -6 43 -10 65 -4 22 -9 51 -11
65 -3 14 -7 36 -10 50 l-5 25 -725 -1 c-408 0 -725 4 -725 8 0 5 5 6 10 3 6
-3 10 -2 10 2 0 9 43 16 88 15 31 0 28 10 -16 49 -90 81 -168 117 -308 144
-11 2 -21 4 -23 4 -2 1 8 13 23 28 56 55 128 211 143 306 11 66 6 198 -8 247
-7 25 -13 50 -15 55 -1 6 -11 29 -22 53 l-19 43 -12 -30 c-34 -82 -136 -115
-265 -87 -42 10 -120 63 -226 155 -86 75 -172 141 -183 141 -3 0 -22 7 -43 17
-56 23 -87 28 -189 27 -63 -1 -108 -7 -148 -21 -51 -18 -57 -18 -51 -4 9 22
55 162 59 181 2 8 4 15 5 15 1 0 3 7 5 15 8 35 27 127 30 145 2 11 6 34 9 50
19 96 26 340 13 470 -10 93 -23 190 -27 190 -1 0 -8 34 -13 67 -5 32 -15 30
-34 -9z m-2657 -5880 c10 -20 50 -70 88 -111 39 -41 83 -87 97 -102 31 -32
169 -143 226 -181 34 -23 43 -39 91 -165 55 -144 60 -156 85 -214 18 -43 42
-113 40 -120 -1 -3 -4 -22 -7 -44 -4 -21 -8 -41 -10 -45 -2 -3 -7 -26 -10 -51
-3 -25 -8 -54 -10 -65 -15 -83 -22 -145 -31 -289 -2 -38 -6 -71 -9 -73 -2 -3
-14 1 -26 7 -34 18 -92 18 -125 0 -16 -9 -41 -36 -55 -61 -23 -40 -25 -54 -25
-169 0 -96 -3 -121 -11 -105 -18 34 -39 70 -44 75 -3 3 -30 34 -60 70 -86 103
-135 145 -229 198 -57 33 -116 59 -197 86 -8 3 -7 28 2 88 8 45 16 99 18 118
14 96 17 117 20 135 2 11 7 45 12 75 4 30 8 57 9 60 1 3 5 32 9 65 16 114 25
170 33 210 3 16 7 43 9 60 1 16 7 59 13 95 5 36 13 85 16 110 3 25 8 52 10 60
2 8 7 35 10 60 5 44 21 149 29 200 3 14 5 33 5 43 1 26 8 21 27 -20z m6391
-3545 c-67 -99 -181 -173 -297 -194 -35 -6 -160 -7 -192 -1 -40 7 -21 12 55
14 45 1 107 9 137 18 70 20 69 20 105 34 17 7 32 13 35 13 16 2 122 82 127 96
9 21 36 53 41 47 3 -2 -2 -15 -11 -27z m-1774 -162 c-23 -32 -104 -63 -149
-58 -37 5 -38 14 -1 19 25 4 100 31 137 50 33 17 34 17 13 -11z"/>
</g>
</svg>
